<?xml version="1.0" encoding="utf-8"?>
<!-- Generator: Adobe Illustrator 21.1.0, SVG Export Plug-In . SVG Version: 6.00 Build 0)  -->
<svg version="1.1" id="Layer_1" xmlns="http://www.w3.org/2000/svg" xmlns:xlink="http://www.w3.org/1999/xlink" x="0px" y="0px"
	 viewBox="0 0 500 500" style="enable-background:new 0 0 500 500;" xml:space="preserve">
<style type="text/css">
	.st0{fill:#010101;}
	.st1{fill:#FCFCFC;}
	.st2{fill:#030303;}
	.st3{fill:#040404;}
	.st4{fill:#FBFBFB;}
	.st5{fill:#020202;}
	.st6{fill:#FDFDFD;}
	.st7{fill:#060606;}
	.st8{fill:#070707;}
	.st9{fill:#0A0A0A;}
	.st10{fill:#0F0F0F;}
	.st11{fill:#9E9E9E;}
	.st12{fill:#141414;}
	.st13{fill:#0C0C0C;}
	.st14{fill:#191919;}
	.st15{fill:#EFEFEF;}
	.st16{fill:#B1B1B1;}
	.st17{fill:#BCBCBC;}
	.st18{fill:#959595;}
	.st19{fill:#E4E4E4;}
	.st20{fill:#CECECE;}
	.st21{fill:#3E3E3E;}
	.st22{fill:#C1C1C1;}
	.st23{fill:#080808;}
	.st24{fill:#E5E5E5;}
	.st25{fill:#EAEAEA;}
	.st26{fill:#494949;}
	.st27{fill:#F6F6F6;}
	.st28{fill:#F4F4F4;}
	.st29{fill:#686868;}
	.st30{fill:#D8D8D8;}
	.st31{fill:#FAFAFA;}
	.st32{fill:#E1E1E1;}
	.st33{fill:#DEDEDE;}
	.st34{fill:#DBDBDB;}
	.st35{fill:#EDEDED;}
	.st36{fill:#D3D3D3;}
	.st37{fill:#E0E0E0;}
	.st38{fill:#A4A4A4;}
	.st39{fill:#F9F9F9;}
	.st40{fill:#B8B8B8;}
	.st41{fill:#C8C8C8;}
	.st42{fill:#EEEEEE;}
	.st43{fill:#B6B6B6;}
	.st44{fill:#0E0E0E;}
	.st45{fill:#ACACAC;}
	.st46{fill:#323232;}
	.st47{fill:#9F9F9F;}
	.st48{fill:#3A3A3A;}
	.st49{fill:#EBEBEB;}
	.st50{fill:#AFAFAF;}
	.st51{fill:#ADADAD;}
	.st52{fill:#9D9D9D;}
	.st53{fill:#A5A5A5;}
	.st54{fill:#F8F8F8;}
	.st55{fill:#CFCFCF;}
	.st56{fill:#6C6C6C;}
	.st57{fill:#B4B4B4;}
	.st58{fill:#B0B0B0;}
	.st59{fill:#BEBEBE;}
	.st60{fill:#A1A1A1;}
	.st61{fill:#C4C4C4;}
	.st62{fill:#D0D0D0;}
	.st63{fill:#393939;}
	.st64{fill:#A8A8A8;}
	.st65{fill:#F1F1F1;}
	.st66{fill:#B7B7B7;}
	.st67{fill:#B9B9B9;}
	.st68{fill:#C0C0C0;}
	.st69{fill:#CBCBCB;}
	.st70{fill:#282828;}
	.st71{fill:#3C3C3C;}
	.st72{fill:#898989;}
	.st73{fill:#7E7E7E;}
	.st74{fill:#D5D5D5;}
	.st75{fill:#C6C6C6;}
	.st76{fill:#D2D2D2;}
	.st77{fill:#BFBFBF;}
	.st78{fill:#F5F5F5;}
	.st79{fill:#C2C2C2;}
	.st80{fill:#CDCDCD;}
	.st81{fill:#090909;}
	.st82{fill:#C7C7C7;}
	.st83{fill:#DCDCDC;}
	.st84{fill:#BBBBBB;}
	.st85{fill:#ABABAB;}
	.st86{fill:#DFDFDF;}
	.st87{fill:#F7F7F7;}
	.st88{fill:#B3B3B3;}
	.st89{fill:#DADADA;}
	.st90{fill:#B2B2B2;}
	.st91{fill:#CACACA;}
	.st92{fill:#E3E3E3;}
	.st93{fill:#C3C3C3;}
	.st94{fill:#F2F2F2;}
	.st95{fill:#1E1E1E;}
	.st96{fill:#E8E8E8;}
	.st97{fill:#050505;}
	.st98{fill:#2A2A2A;}
	.st99{fill:#171717;}
	.st100{fill:#181818;}
	.st101{fill:#303030;}
	.st102{fill:#F0F0F0;}
	.st103{fill:#AEAEAE;}
	.st104{fill:#A2A2A2;}
</style>
<g>
	<path class="st0" d="M-606,144.9c7,4.1,7,4.1,12.6-1.7c6-6.2,12.1-12.4,18.1-18.6c1.9-1.9,3.9-4.6,6.6-1.8c2.6,2.7-0.2,4.8-2,6.6
		c-6.5,6.7-13,13.4-19.4,20.1c-0.7,0.7-1.7,1.7-1.5,2.3c0.3,1.3,1.8,1.3,2.9,1.3c2.3,0,4.7,0,7,0.1c1.3,0,2.3,0.8,2.3,2.1
		c0,1.4-1.1,1.9-2.4,2c-1.2,0-2.3,0-3.5,0c-36,0-72-0.1-108,0.1c-4,0-4.9-1.1-4.8-4.9c0.2-20,0.1-40,0.1-60c0-1.3,0-2.7,0.2-4
		c0.2-0.8,0.9-1.4,1.9-1.3c0.9,0,1.6,0.6,1.8,1.4c0.2,0.8,0.4,1.7,0.2,2.5c-2,8.3,2.7,11.9,9.6,14.4c2.3,0.8,3.3,0.7,4.9-1.1
		c6.5-7.5,14.8-10.5,24.6-8.8c2,0.3,3.1,0,3.8-1.9c0.7-1.9,1.7-3.6,2.6-5.4c0.9-1.9,2.4-2.9,4.4-2.1c2.1,0.8,2.7,2.8,1.7,4.5
		c-1.7,3-0.1,3.8,2.3,4.4c0.2,0,0.3,0.1,0.5,0.1c14.9,3.4,26.2,11.5,33.1,25.3c1.7,3.3,3,2.2,5,0.2c3.6-3.6,6.8-7.7,11.2-10.5
		c1.6,1.4-0.1,2.5-0.2,3.8c-0.3,1.3-0.8,2.6-1.2,3.9c-0.3,0.5-0.7,1.1-1,1.7c0.5-0.4,0.6-1.1,1-1.6c0.3-1.3,0.8-2.5,1.1-3.8
		c0.4-1.3,1.1-2.4,2.2-3.2c2-1.8,4.3-2.4,6.6-0.7c2.6,1.8,1.7,4.5,1.5,7c-1.3,3.7-2.4,7.5-5,10.6c-0.9,0.6-2.4,1-2.7,1.8
		c-2.9,7.3-8.6,10.8-16.7,11.5c1.5,1.9,2.5,0.9,3.4,0.8c1.1-0.1,2-1.2,3.5-0.5c-2,2.1-4.7,1.8-7,2.5
		C-605.6,143.5-606.6,143.1-606,144.9z"/>
	<path d="M-874.7,272.1c-1.4,2.8-2.7,5.7-4.2,8.7c7.2,2.3,14.3,4.6,21.4,6.9c2.5,0.8,5.2,1.7,4.3,4.9c-1,3.6-3.9,2.9-6.6,2.1
		c-7.4-2.3-14.8-5-22.3-7c-5.1-1.3-6.9-4-5.6-9c0.2-0.9,0.3-1.9,0.5-3.3c-8.2,1.8-15.5,3.6-18.7,12.5c-1.6,4.4-4.4,8.4-7.5,14.1
		c9,0,16.9-0.1,24.8,0c12.8,0.3,25.6,0.7,38.5,1.1c2.1,0.1,5.3-0.9,5.2,2.8c-0.1,3.3-3.1,2.5-5,2.5c-29.3,0.9-58.6,1.8-87.9,2.7
		c-8.2,0.2-16.3,0.4-24.5,0.8c-3,0.2-4.3-0.1-4.1-3.9c1.3-20.1,2.4-40.2,3.4-60.4c0.1-2.7,0.7-3.9,3.7-3.7c3.5,0.2,7,0.3,10.5,0
		c3.9-0.4,5.8,1.3,6.9,5.3c-3.8,0-7.4,0.1-11,0c-3-0.2-4.4,0.3-4.2,4c1,14.5,1.7,28.9,2.3,43.4c0.1,2.6,0.9,3.4,3.5,3.4
		c9.7,0.2,19.3,0.5,29,0.9c2.1,0.1,2.6-0.4,3.7-2.7c5.9-12,10.5-25.4,24.1-31.7c1.8-0.8,2.4-0.7,3.4,0.9c0.8,1.4,1.6,2.9,3.2,3.5
		c3.3-0.6,6.6,1.1,9.8-0.1c0.5,0,1,0.1,1.5,0.2C-875.9,271.1-875.2,271.4-874.7,272.1z"/>
	<path class="st0" d="M-701,229.6c0-1.5,0-3,0-4.5c0-2.5,1-4.3,3.7-4.4c3-0.1,3.9,2.1,3.9,4.7c0,6.2-0.6,12.4,0.1,18.5
		c2.2,18.4,1,36.8,1.3,55.2c0.1,3.4-0.4,6.5-4.6,7c-3.7,0.4-5.7-1.6-5.8-5.2c-0.2-4.3-0.2-8.7,0-13c0.1-2.6-0.8-3.4-3.4-3.4
		c-23.2,0.1-46.3,0-69.5,0.1c-6.9,0-7.5,0.9-7.5,7.7c0,2.8,0,5.7,0,8.5c0,2.4-1.4,3.9-3.6,3.9c-2.2,0-3.7-1.4-3.7-3.8
		c0-5.8,0-11.7,0-17.5c0-3.4,2.6-3.8,5-4.5c25.5-6.9,50.9-13.9,76.4-20.9c6.2-1.7,7.4-3.2,7.6-9.8c0.1-3.7,0-7.3,0-11
		c0.1-2.4,0.2-4.6-3.1-5c-1.3-0.1-1.7-1.5-1.9-2.6c-0.2-1.1-0.9-2.6,0.3-3.2c1.8-0.9,2.1,0.9,2.6,2
		C-702.8,229-702.6,229.7-701,229.6z"/>
	<path d="M-502.1,310.1c-5.2-1.3-8.6-4.4-9.1-9.8c-0.6-5.7,2-9.7,7.3-11.7c2.2-0.8,2.1-2.1,1.9-3.8c-2.1-13.3-4.1-26.6-6.3-39.9
		c-0.7-4-3.5-7.1-5.3-10.6c-0.7-1.4-2.3-2.9-0.2-4.3c1.9-1.3,3,0.4,4.1,1.6c1.6,1.7,3.2,3.4,4.7,5.1c5.7,6.3,11.1,5.8,16.1-1.5
		c1.9-0.7,2,1,2.6,2c0.2,0.5,0.2,1,0.3,1.5c-0.2,3.6-3,4.9-5.7,6.2c-1.9,0.9-4,1.6-5.7,3c-2.9,2.2-4.2,4.6-3.5,8.5
		c1.6,8.2,2.7,16.4,3.9,24.6c0.5,3.6,2.1,4.4,5.3,3.6c2.4-0.6,4.8-1.4,7.3-0.3c1.2,0.8,1.6,2,1.8,3.3c0.1,1.1-0.4,1.9-1,2.7
		c-2.3,1.6-2.7,3.5-0.7,5.6c1.6,1.1,3.1,0.9,4.5-0.3c0.9-0.9,1.6-1.9,2.2-2.9c0.8-1.2,1.9-2.1,2.4-3.5c0.2-0.6,0.6-1.2,1-1.7
		c1.6-1.5,4.1-0.4,5.6-2.1c0.4-0.5,0.9-1,1.3-1.5c1.1-3.4,3.2-5.7,7-5.9c3.8-0.2,3.8-3.6,5.2-5.9c1-1.4,2.5-1.9,4-2.6
		c0.4-0.2,0.8-0.4,1.2-0.5c1.2-0.5,2.4-1.2,3.8-0.8c1.2,0.2,2.7-2.3,3.6,0.3c0.7,1.8-0.6,2.7-2.1,3.3c-4.3,1.8-4.3,3.2-1.1,6.4
		c6.1,6.2,8.5,14.1,8.1,22.6c-0.3,5.2-4.1,8.4-9.4,9.4c-1.7,1.4-3.7,1.2-5.7,1.2c-14.6,0-29.2,0-43.7,0
		C-498.3,311.4-500.4,311.5-502.1,310.1z"/>
	<path class="st0" d="M-801.9,114.9c-0.2-1.1-0.5-2.3,0.8-3c1.4-1.2,3.1-0.8,4.7-0.9c-1.6-0.1-3.3,0.3-4.7-0.9
		c-1.8-1.4-0.9-2.7,0.2-4c3-1.3,6.2,0,9-0.7c-2.8-0.1-5.9,0.6-9-0.4c-1.5-1.4-1.6-2.7,0-4.1c3.1-1,6.1-0.2,8.4-0.4
		c-2.2-0.8-5.4,0.9-8.3-0.7c-2.4-3.1-1.2-4.4,2.2-4.7c7.6-0.6,7.8-0.7,7.5-8.6c-0.2-5,1.5-10.1-1.8-14.9c-1.1-1.6-1.9-1.9-3.4-1.9
		c-8.3,0-16.7,0.1-25-0.1c-2.3,0-2.7,0.9-2.7,2.9c0.1,32.2,0,64.3,0,96.5c0,1.4-0.4,3.2,2.1,2.9c1.1-0.1,2.1,0.3,2.1,1.5
		c-0.1,1.4-1.2,1.3-2.2,1.3c-2.8,0-5.7,0-8.5,0c-1,0-1.7-0.4-1.8-1.3c-0.1-0.9,0.6-1.6,1.5-1.6c3.8,0.4,2.7-2.4,2.7-4.3
		c0-32.2,0.1-64.3-0.1-96.5c0-4.6,1.2-6.1,5.8-5.9c8.5,0.4,17,0.1,25.5,0.1c1.9,0,3.7,0.2,3.8-2.6c0.1-1.6,1.3-2.2,2.8-2.2
		c1.3,0.1,2.3,0.8,2.4,2.1c0.2,3.1,2.3,2.6,4.3,2.6c8.5,0,17,0.2,25.5-0.1c4.1-0.1,5.4,1.1,5.4,5.3c-0.2,32.2-0.1,64.3-0.1,96.5
		c0,2.2-1,5.3,3.2,5c0.4,0,1.1,0.9,1.1,1.4c0,0.4-0.8,1.2-1.3,1.2c-3.3,0.1-6.7,0.1-10,0c-0.7,0-1.3-0.4-1.3-1.2
		c0-1,0.5-1.7,1.5-1.6c2.9,0.3,2.6-1.6,2.6-3.4c0-31.8-0.1-63.6,0.1-95.5c0-3-1-3.6-3.7-3.5c-7.5,0.2-15,0.4-22.5-0.1
		c-5.1-0.3-6.2,3.3-6.6,6.4c-0.7,5.4-0.1,11-0.2,16.5c0,2,0.7,2.7,2.6,2.6c1.7-0.1,3.3-0.1,5,0c3.5,0.2,4.6,1.7,2.2,4.7
		c-2.9,1.5-6.2-0.2-9.5,1.1c-0.3,0,0.7,0.5,0.4-0.1c-0.1-0.2,0-0.3,0.4-0.3c2.9,0,5.9-0.5,8.8,0.3c1.6,1.4,1.5,2.7,0,4.1
		c-3.1,0.9-6.3,0.2-8.9,0.4c2.6,0.6,5.8-0.7,8.8,0.6c1.2,1.3,2,2.6,0.2,4.1c-1.4,1.1-3.1,0.8-4.7,0.8c1.6,0.1,3.3-0.3,4.7,0.9
		c1.4,0.7,1.1,1.9,0.8,3.1c-0.9,2.3-2.9,2.3-4.9,2.3c-2.1,0.1-4.2,0.1-6.1,1.1c-2.4-0.6-4.8-1.1-7.3-1.1
		C-799.2,117.3-801.1,117.1-801.9,114.9z"/>
	<path class="st1" d="M-756.1-197l-0.4,0l-0.4,0c-7.3-3.1-15,0.3-22.4-1.4c-2.1-0.5-3.7,1.1-4.1,3.4c-0.3,1.4-0.2,3-1.6,4
		c-0.6-1.4-1.3-2.8-1.9-4.2c-1.6-2.7,1.2-4.1,1.9-6.1c-3.8-1.8-7.6-3.5-10.9-6c-4.7-3.6-7.7-12.4-6-17.6c17.1,0,34.1,0,51.2-0.1
		c3.6,0,7.2,0,10.8,0c1.5,6.5-0.9,11.9-5.1,16.6c-1.5,1.7-3.6,3-5.7,3.9C-754.4-203.1-756.4-200.9-756.1-197z"/>
	<path d="M-785.1-191c-0.6-9.3,1.3-9.7,10.1-8.3c4.1,0.7,7.8-0.7,11.8-0.6c2.7,0,4.9,0.5,6.3,2.9c-1,12-2.1,23.9-3.1,35.9
		c-1.7,1.8-3.9,1.6-6,1.5c-5.3-0.4-10.8,1.3-16-1.2c-1.8-6.5-0.6-13.3-1.9-19.8C-784.6-184.1-784.8-187.5-785.1-191z"/>
	<path d="M-646.1-196c1-1.2,2.2-2.1,3.8-1.9c6.6,0.6,13.1,0.5,19.7,0c1.7-0.1,2.8,0.7,3.8,1.9c2.1,1.5,2.2,3.5,1.2,5.5
		c-0.8,1.5-0.8,3-1.3,4.6c-0.7,7.8-1.6,15.5-2.1,23.3c-0.2,2.7-0.8,3.8-3.7,3.7c-5.1-0.2-10.3-0.2-15.5,0c-2.8,0.1-3.7-0.8-3.9-3.6
		c-0.6-9.1-1.5-18.2-2.3-27.3c-1.2-1.4-1.2-3-0.7-4.7C-646.7-195.1-646.4-195.6-646.1-196z"/>
	<path d="M-782-55c1.5-0.8,3.1-1.1,4.8-0.8c5.2,0.9,10.4,0.5,15.7,0.1c5.8-0.4,6.9,1.1,6.4,7.1c-0.9,10.5-1.9,21.1-2.9,31.6
		c-7.3,2.4-14.6,2.3-22,0.1c-0.7-7-1.5-13.9-2.2-20.9c-1.8-2-0.7-4.8-1.7-7c-0.3-1.4-0.4-2.7-0.4-4.1C-784.3-51.3-784.5-53.7-782-55
		z"/>
	<path d="M-613.1,228c1.6-3.2,4.7-3.1,7.4-2.6c5.3,1.1,10.5,0.2,15.7-0.4c4.2-0.2,6,1.2,6.3,5.3c0.3,4-0.4,7.9-0.9,11.8
		c-1,7.4,0,15.2-3.6,22.3c-7.3,1.3-14.6,2.1-21.8-0.4c-1-10.7-2.1-21.3-3.1-32C-614.1,230.7-614.1,229.3-613.1,228z"/>
	<path class="st0" d="M-615-121.3c0,5.2,0,8.7,0,12.2c0,2.6-1.1,4.2-3.8,4.2c-2.7,0-3.8-1.8-3.9-4.2c-0.1-2.2-0.2-4.4,0-6.5
		c1.1-10.4-1.7-20-5.5-29.5c-0.8-2.1-1.8-3.1-4.2-3c-2.3,0.1-3.4,0.8-4.3,3c-3.7,9.5-6.6,19.1-5.5,29.5c0.2,1.8,0,3.7,0,5.5
		c0,2.8-0.5,5.2-3.9,5.2c-3.3,0-3.9-2.4-4-5.2c-0.2-11.5-0.3-23,3.2-34.1c1.4-4.4,0.5-10.7,3.8-12.9c3.3-2.2,9-0.8,13.6-0.8
		c8.1-0.1,8.3-0.1,9.9,7.8C-617.3-139.9-613.5-130.1-615-121.3z"/>
	<path d="M-489.9,123.9c-1-10.3-1.9-20.5-2.9-30.8c-0.6-6.6,0.4-8.1,6.9-7.5c5.3,0.5,10.6,0,15.9-0.1c2.5-0.1,4.7,0.4,5.3,3.3
		c0.8,1.1,0.8,2.2,0,3.2c-1.1,10.6-2.1,21.3-3.2,31.9C-475.3,126.2-482.6,126.3-489.9,123.9z"/>
	<path class="st0" d="M-905-159.9c0.9,4,1.5,8.2,2.7,12.1c3.5,11.6,3.6,23.6,3.4,35.5c-0.1,2.9-0.9,5.1-4,5.1
		c-2.9-0.1-3.8-2.3-3.8-4.9c0-2.5-0.3-5,0-7.5c1.3-10-2.2-18.9-5.5-28c-0.8-2.3-2.2-2.8-4.4-2.9c-2.5-0.1-3.4,1.2-4.2,3.2
		c-3.8,9.3-6.5,18.8-5.4,29c0.2,2,0,4,0,6c0,2.8-0.9,5.2-4.1,5c-2.8-0.1-3.7-2.3-3.7-4.9c-0.3-12-0.2-23.9,3.4-35.5
		c1.2-4,1.8-8.1,2.7-12.1c0.8-0.9,1.8-1.5,3-1.5C-918.3-160.9-911.5-163-905-159.9z"/>
	<path class="st0" d="M-930-198c1-0.6,2.1-1.7,3-1.6c8.3,1.4,16.8-1.5,25,1.1c0.3,0.4,0.5,0.8,0.7,1.3c1,3.6-1.7,6.7-1.5,10.3
		c-1.2,8.2-1.9,16.5-2.3,24.8c-5.9,2.5-12.1,0.6-18.1,1.1c-1.6,0.1-3.4,0.3-4.6-1.2c-0.8-9.2-1.6-18.5-2.4-27.7
		C-930.6-192.7-932.9-195.4-930-198z"/>
	<path class="st0" d="M-758.1-15.8c4.1,15.6,7.6,31.3,6.4,47.7c-0.2,2.6-0.2,5.3-3.6,5.5c-3.7,0.1-4.2-2.6-4-5.5
		c0.8-11.9-0.4-23.5-5.6-34.5c-0.9-2-1.5-3.3-4.1-3.3c-2.7,0-3.6,1.1-4.5,3.4c-4,9.6-6.6,19.4-5.5,30c0.2,1.5,0,3,0,4.5
		c0.1,2.7-0.3,5.3-3.6,5.4c-3.3,0.1-4.1-2.3-4.1-5.1c0-11.3-0.5-22.6,3-33.6c1.5-4.7,2.5-9.6,3.7-14.4
		C-772.6-16.9-765.4-16.9-758.1-15.8z"/>
	<path class="st0" d="M-759.1-156.9c0.5,2.8,0.8,5.6,1.6,8.3c3.8,12.1,3.9,24.5,3.7,37c0,2.6-0.6,4.9-3.6,5c-3.2,0.1-4.1-2.2-4-5
		c0.1-2.8-0.3-5.7,0.1-8.5c1.3-9.9-2.9-18.5-5.9-27.5c-0.8-2.3-2.3-2.3-4.3-2.3c-2.3-0.1-3,0.9-3.9,2.9c-4,9.6-6.8,19.4-5.7,30
		c0.2,1.8-0.1,3.7,0,5.5c0.1,2.7-0.7,4.9-3.6,5c-3.1,0.1-4.2-2.1-4.2-5c-0.1-11.5-0.4-22.9,3.1-34.1c1.5-4.7,2.4-9.5,3.6-14.3
		c6.4-1,12.9-0.4,19.4-0.4C-760.5-160.3-759.6-158.7-759.1-156.9z"/>
	<path class="st0" d="M-467.2,126.2c0.8,4.1,1.2,8.3,2.4,12.2c3.6,11.3,3.7,22.9,3.4,34.6c-0.1,2.9-0.5,5.8-4,5.7
		c-3.5,0-4-2.9-3.8-5.8c0.8-11.8-0.4-23.2-5.4-34c-1-2.2-1.8-3.4-4.5-3.5c-3-0.1-3.4,1.6-4.3,3.7c-4.2,9.8-6.5,19.8-5.4,30.5
		c0.1,1.3,0,2.7,0,4c0.1,2.8-0.8,5.2-4,5.1c-2.9-0.1-3.6-2.4-3.6-5c-0.3-12.5,0-24.9,3.6-37.1c1.1-3.5,1.8-7.1,2.6-10.6
		C-482.4,124.4-474.8,124.2-467.2,126.2z"/>
	<path class="st0" d="M-587.1,268.1c0.6,2.8,0.9,5.6,1.7,8.3c3.7,12.1,4,24.6,3.7,37.1c-0.1,2.8-0.8,5.2-4,5.1
		c-2.9-0.1-3.7-2.4-3.6-5c0.1-3-0.3-6,0.1-9c1.2-9.7-3-18.2-5.9-27c-0.7-2.3-2.4-2.3-4.3-2.4c-2.2-0.1-3,1-3.9,2.9
		c-4.3,9.9-6.8,20.1-5.7,31c0.2,1.8,0,3.7,0,5.5c0,2.4-1.5,3.8-3.6,3.9c-2.2,0.1-4-1.4-3.9-3.7c0.2-8.8-1-17.6,0.9-26.4
		c1.6-7.1,3.1-14.3,4.6-21.4c0.2-0.4,0.4-1.1,0.9-1.2c7-1.8,14.1-0.9,21.2-0.6C-587.5,265.5-587.7,267.2-587.1,268.1z"/>
	<path d="M-898.8-45c-1.2,9.2-2.3,18.3-2.3,27.6c-0.2,0.8-0.5,1.8-1.3,2c-6.5,1-13.1,2.3-19.5-0.8c-1-11.2-2-22.5-3.1-33.7
		c1-3.3,3.8-3.6,6.4-3.3c4.4,0.5,8.8-0.1,13.2-0.1C-898.6-53.5-897.2-51.6-898.8-45z"/>
	<path class="st0" d="M-901.1-14.8c0.4,2.6,0.6,5.3,1.4,7.8c3.2,10.9,4.6,22.1,3.8,33.4c-0.2,2.9,1.5,7.3-3.4,7.4
		c-4.7,0.1-3.8-4.3-3.6-7.2c0.6-10.1-0.6-19.8-4.9-29.1c-1-2.1-1.5-3.6-4.3-3.6c-2.8,0-3.2,1.6-3.9,3.5c-3.6,8.8-6.1,17.9-5,27.5
		c0.1,1.3,0,2.7,0,4c0.1,2.5-0.3,5-3.4,5c-3,0.1-3.5-2.2-3.7-4.8c-1.1-15.1,1.9-29.7,6-44.1C-915-15.7-908-16-901.1-14.8z"/>
	<path class="st2" d="M-855.8-73.6c-0.1,0.2-0.2,0.5-0.2,0.5c-7.4-0.2-6,5.1-6,9.5c0,30.8,0,61.6,0,92.4c0,1.9-1.1,4.6,2.6,4.7
		c0.4,0,1.1,0.9,1.1,1.4c0.1,1.1-1,1.2-1.8,1.2c-3.2,0-6.3,0-9.5,0c-0.8,0-1.8-0.1-1.9-1.2c0-0.9,0.5-1.6,1.5-1.6
		c2.8,0,2.1-2.1,2.1-3.6c0-32.8-0.1-65.6,0.1-98.4c0-4-1.9-3.7-4.5-3.7c-1.3,0-3.6,1-3.7-1c-0.1-2.2,2.3-1.3,3.6-1.3
		c2.4-0.1,5.3,0.7,4.6-3.5c-0.3-1.6,1-1.9,2.3-1.8c1.2,0.2,3.5-0.7,3.3,1c-0.7,4.9,2.5,4.3,5.4,4.5
		C-856.4-74.5-856.1-73.9-855.8-73.6z"/>
	<path class="st3" d="M-968.1-73.3c0.8-1.8,2.3-1.4,3.6-1.4c2.6,0.1,5.1,0.3,4.5-3.7c-0.3-1.8,1.2-1.7,2.4-1.6
		c1.2,0.1,3.3-0.6,3.1,1.3c-0.3,4,1.9,4.3,4.8,4c1.1-0.1,2.2,0.2,2.3,1.4c0.1,1.5-1.4,1.2-2.2,1c-4.1-0.7-4.8,1.2-4.8,5
		c0.1,32,0.1,64,0.1,96c0,1.5-1,3.5,1,4.5c1.1,0.6,3.1,0.3,2.3,2.3c-0.6,1.4-2.4,0.7-3.6,0.8c-1.5,0.1-3,0.1-4.5,0
		c-1.6-0.1-3.9,0.9-4.5-0.8c-0.9-2.3,1.8-1.6,2.9-2.3c1.3-0.8,0.6-2.1,0.7-3.2c0-32.8,0-65.6,0.1-98.5c0-2.7-0.6-4-3.5-3.7
		C-965.1-72.1-966.9-71.7-968.1-73.3z"/>
	<path d="M-930.1,86c3.4-2.7,19-2.8,22.4-0.1c0.1,2.2,1.1,4.3,1.1,6.6c0,1.6,0,3.1-0.3,4.7c-2.3,3.3,1.7,5.1,1.9,7.8
		c0,0.5,0.1,1.4,0.1,1.4c-5.7,0.6-4.1,5-4.1,8.4c-0.1,2.3-0.8,3.3-3.2,3.1c-2.6-0.2-5.3,0-8,0c-7.9,0-8.2,0-8.5-8
		c-0.1-3.3-2.3-2.5-3.9-3c-1.1-1.7,0.5-2.4,1.3-3.3c1.4-0.7,2.3-1.7,1.6-3.4c-0.1-0.4-0.2-0.9-0.3-1.3c-0.2-2.2-0.3-4.4-1-6.5
		C-931.5,90.1-931.1,88-930.1,86z"/>
	<path class="st4" d="M-898.8-45c-0.1-6.9-0.5-7.6-7.5-6.9c-4.3,0.4-8.6,0.2-12.9-0.1c-2.3-0.2-4.3,0.3-5.8,2.1c-0.3,0-0.6,0-0.8,0
		c0.4-2.8-0.6-4.6-3.4-5.9c-5.9-2.7-10.5-6.8-11.2-13.9c-0.1-1.1-0.6-2.3,0.6-3.2c0.3,0,0.6,0,0.9,0c5.1-1,10.2-0.4,15.3-0.4
		c10.9-0.1,21.9,0,32.8-0.1c1.9,0,4,0.5,5.5-1.4c1.1-0.3,0.6-2.7,2.6-2c1.2,8-2.6,15.8-9.8,19.9c-5.3,3.1-5.3,3.1-3.5,9
		C-896.9-47-897.9-46-898.8-45z"/>
	<path class="st0" d="M-909,131.6c1.9,6.1-0.7,11.8-4.5,17.3c-1.2,1.8-2.9,3.5-1.8,6.3c0.5,1.3-0.6,2.8-1.9,3.1
		c-2.3,0.5-3.1,2.1-4.2,3.8c-1.1,1.7-2.8,2.6-4.7,1.4c-1.8-1.1-2.5-3-1-4.7c3.9-4.4,1.9-7.9-1.5-10.9c-6.2-5.4-4.5-11.6-2.8-18.2
		c2.8-10.6,2.6-10.7,13.3-10.7c8.9,0,8.9,0,9.1,8.7C-908.9,128.8-909,129.8-909,131.6z"/>
	<path class="st0" d="M-494.1-47.4c-2,0.8-4.1,1.1-6.3,1.1c-16.5,0.1-32.8,2-49,5.1c-0.5,0.1-1,0.1-1.5,0.2c-2.9,0.5-5.6,0.2-6-3.3
		c-0.4-3.4,2-4.4,5-4.8c16.4-2.3,32.7-5.5,48.7-10c4.1-1.1,7.7-1.4,11.3,1c0.4,0.3,0.8,0.6,1.1,1.1c1.3,2.5,1.1,5-0.2,7.4
		C-491.7-48.4-492.5-47.4-494.1-47.4z"/>
	<path class="st0" d="M-482-6c4.4-2.2,8.4-1.3,12.6,1.2c13.4,7.7,27.9,12.3,43.2,14c0.3,0,0.7,0.1,1,0.2c2.8,0.5,5.6,1.5,5,4.9
		c-0.6,3.5-3.2,3.7-6.5,3.2c-18.7-2.9-36.9-8-55.2-12.4c-0.4-0.3-0.8-0.7-1-1.1c-1-2.2-1.3-4.5-1.1-6.8C-483.9-4.3-483.5-5.5-482-6z
		"/>
	<path class="st0" d="M-728.1,253.3c0.1,4.6-2,7.3-6.6,8.4c-10.7,2.7-21.3,5.8-32,8.7c-1.4,0.4-3.1,1.7-4.2-0.5
		c0.1-2,1.4-3.9,0.1-5.9c-0.8-1-2-1.7-2.2-3.1c-0.2-1.6-2.1-1.4-2.7-2.6c9.6-5,19.6-9,29.8-12.3c1.9-0.5,1.8,1.4,2.6,2.2
		c0.8,1.3,1.9,2.3,2.9,3.3c0.8,0.8,1.5,1.6,2.2,2.4c1.8,2,3.7,2.2,5.8,0.4C-731,254.1-730.4,249.7-728.1,253.3z"/>
	<path class="st0" d="M-773.1,261c1.1,0.7,2.2,1.5,3.4,2.2c-0.6,2.3,0.4,5.1-2.1,6.9c-3.4,4.4-8.8,5.3-13.5,6.7
		c-7.4,2.2-11,6.1-10.6,13.9c0.2,3.4-0.6,6.9-1.1,10.4c-0.4,2.9-2.1,4.6-5,4.3c-2.7-0.3-4.1-2.1-3.9-4.8c0.5-7.5,1.1-14.9,1.7-22.3
		c0.2-2.2,1.8-3.6,3.4-4.6c6.8-4.2,13.6-8.2,20.4-12.3C-778,259.8-775.5,260.6-773.1,261z"/>
	<path class="st5" d="M-474,288.1c0,0.7,0,1.3,0,2c-1.4,0.6-2.2,1.7-3,2.9c0,1.4-0.6,2.3-1.8,2.9c-1.7,2.2-3.6,1.9-5.5,0.4
		c-2-2.3-1.8-4.4,0.4-6.4c0.3-0.5,0.7-1.1,1-1.6c-0.2-2.3,1.4-3.9,2.3-5.7c3.5-5.5,6-11.6,10.8-16.3c3.1-3.1,6.7-5.7,10.2-8.5
		c1.8-1.6,3.6-3.3,6-4c2.5-0.6,4.9-1.5,7.5-0.9c2.1,0.6,4,1.4,4.2,4c-0.5,3.7,0.4,7.9-3.9,10.1c-1,1.5-3,1.5-4.1,2.9l0.1-0.1
		c-1.9,0.2-3.7,0.5-5.2,1.9c-3.8,2.2-8.8,2.3-11.7,6.2c-0.2,0.4-0.4,0.7-0.7,1.1c-1.2,1.1-2.1,2.5-2.6,4.2c-0.2,0.4-0.4,0.8-0.6,1.1
		C-471.8,285.6-472.9,286.9-474,288.1z"/>
	<path class="st0" d="M-875.1,243.1c0.7,5.2,1.4,10.4,2.2,15.6c0.6,4,0,7.5-3.1,10.3c-0.7,1.5-2,2.2-3.6,2.4c-3,0.2-6.2,0.6-8.4-2.2
		c-2.4-2.2-3.5-5.1-3.9-8.2c-0.7-5.3-1.4-10.7-2.1-16c1.2-1.4,3.1-1.3,4.7-1.8c1.3-0.3,2.7-0.4,4-0.5c1.4,0,2.1-1,2.8-2
		c0.3-0.5,0.7-1,1.1-1.5c1.5-1.8,0.8-3.4-0.4-5c-0.3-0.3-0.6-0.7-0.9-1c-0.6-0.8-1-1.6-0.7-2.6c0.4-0.7,0.8-1.2,1.6-0.6
		c2.8,0.6,3.9,2.8,5,5C-874.2,237.3-874.9,240.2-875.1,243.1z"/>
	<path class="st6" d="M-588,263.9c1-10.7,1.9-21.3,3-32c0.4-4-0.8-6.4-5-6.9c-0.5-1.4,1.8-3.9,3.9-4.3c1.9-0.4,3.6,0.2,5.6,0.6
		c-0.4,2.1-9,0.9-2.5,5.6c-0.3,4.9,2.1,7.5,6.9,8.5c6.6,1.5,10.2,6,10.9,12.6c0.4,4.3,2.9,8.6,0.2,13c-0.7-0.3-1.3-0.7-2-1
		c-4.4-2.3-9.1-0.2-13.6-1.2c4.5,1,9.2-1,13.5,1.2c-2.8,3.2-9.9,4.3-15.3,2.1c-3-1.2-4.6-0.5-4.7,2.8
		C-588,265.3-588.3,264.9-588,263.9z"/>
	<path class="st0" d="M-482-6c-0.3,0.9-0.6,1.7-0.9,2.6c-0.2,0.4-0.5,0.7-0.7,1.1c-0.5,1.3-0.4,2.5-0.1,3.8c0.4,0.9,0.9,1.8,1.7,2.5
		c0,0.4,0,0.7,0,1.1c-5.5,2.6-10.9-0.1-16.3-0.5c-4.2-0.3-8.4-1.7-12.6-2.6c-1-0.7-1.3-1.8-1.4-2.9c-0.1-2.4,0-4.8-0.1-7.3
		c0.5-2.3-1.6-4.4-0.6-6.7c10.6,0.7,20.6,4.3,30.9,6.2C-479.2-8.3-482.4-6.9-482-6z"/>
	<path class="st0" d="M-800.1,161.3c-1.9-2.2,0.1-4.9-1-7.3c-1.2-1.4-1.3-3.3-1.7-5c-1.1-4.9-0.3-6.4,4.5-8.8c1.5-0.8,3-0.6,4.5-0.1
		c2.2,0.8,4.5,0.8,6.7,0c3.4-1.2,5.9,0.9,8.7,2.1c0.8,0.7,1.2,1.5,1.1,2.6c-0.2,1.4-0.5,2.9-0.9,4.3c-0.4,1.4-0.8,2.8-1.6,4
		c-0.1,1.6-0.2,3.2-0.3,4.7c-0.1,3.2-1.7,4.8-5,4.6C-790.1,162-795.3,163.5-800.1,161.3z"/>
	<path class="st5" d="M-943.8,120c-1.9,2.3-1.3-1.8-2.9-0.8c0,16.4,0,33.1,0,49.7c0,2,0.4,3.2,2.7,3c1.1-0.1,2.1,0.2,2,1.6
		c-0.1,1.3-1.2,1.4-2.3,1.4c-3.2,0-6.3,0-9.5,0c-1,0-1.7-0.5-1.9-1.4c-0.2-1,0.6-1.7,1.5-1.5c3.9,0.5,3.2-2.2,3.2-4.4
		c0-19.5,0-39,0-58.5c0-1.7-0.9-3.7,0.8-5.1c3-0.4,6-0.6,9.1-0.2c1.3,1.6,0.4,2.9-0.9,3.7c-2.7,1.6-2.3,3.6-1.3,5.9
		C-942.4,115.6-941.5,117.9-943.8,120z"/>
	<path class="st5" d="M-881.1,240.3c-0.3,0.2-0.5,0.4-0.8,0.7c-0.9,1.2-2,2.1-3.5,2.5c-1.4,0.2-2.9-0.2-4.3,0.3
		c-1.4,0.3-2.9,0.2-4.4,0.1c-2,0.1-4.1-0.3-5.9,0.3c-8.1,2.6-13.2-0.9-17.1-7.6c-1.3-2.3-3.3-4.2-4.9-6.3c-1.3-1.6-1.8-3.3,0.1-4.8
		c1.7-1.3,3.1-0.3,4.2,1.1c2.5,3.1,5.2,6.1,7.4,9.4c1.6,2.3,3.2,2.8,5.8,1.8c4.8-1.9,9.7-3.4,14.5-5.1c2.8-3.2,5.4-1.8,8.1,0.2
		c0.4,0,0.8,0.1,1.2,0.1C-880.9,235.5-879.2,238-881.1,240.3z"/>
	<path class="st2" d="M-783.9-35.9c-5.5,5.2-9.2,4.6-11.9-2.3c-1.6-4-2.6-8.2-3.8-12.4c-0.4-1.3-0.6-2.4-2.4-2.4c-2.1,0-2,1.1-2,2.6
		c0,3.1-1,3.5-3.6,1.5c-2.2-1.6-3.1-3.6-3.1-6c0.1-2.9,2.9-3.9,4.6-5.6c1.2-1.2,2,0.8,2.1,2.2c0.1,1.3,0.2,3.6,1.7,2.6
		c3.8-2.7,7.8,1.3,11.1-1c1-0.7-0.7-4.2,1.5-3.7c1.3,0.3,4,1.6,4.5,4c0.1,0.6,0.8,1,1.2,1.5c1.3,4-1.6,5.6-4.2,7.3
		c-1.6,1.1-3,0-4.2-2.1c0.8,2.7,1.3,4.7,2.5,6.5c2-1.1,1.8-3.1,2.7-4.4c1-1.5,1.9-2.8,3.6-0.7c-0.2,2.2,0.5,4.3,0.5,6.4
		C-782.9-39.9-783.2-37.9-783.9-35.9z"/>
	<path class="st0" d="M-707.7,242.7c0,5.8-4.7,10.8-10.1,10.9c-5.9,0-11.1-4.8-11.1-10.5c0-5.9,4.9-10.8,10.8-10.8
		C-712.5,232.2-707.7,237-707.7,242.7z"/>
	<path class="st2" d="M-728.1-57.1c-2.8,1-2.6-1-2.7-2.7c-0.1-1.3-0.1-2.3-1.8-2.2c-1.5,0-2,0.8-2.3,2.1c-1,4.2-2.1,8.4-3.9,12.3
		c-2.7,5.8-7.9,7.7-13.5,4.6c-4.1-2.2-0.6-5.7-1.7-8.6c0.8,0.1,1.3,0,1.7,0.2c2.4,1.1,4.6,5,7.2,2.4c3-3,3.6-7.7,4.3-12
		c0.1-0.9-0.7-1-1.3-1c-0.7,0-1.2,0.4-1.4,1.1c-0.5,1.4,0.7,4.4-1.6,3.8c-1.9-0.5-4-2.5-4.8-5.1c-0.7-2.3,0.3-4,1.8-5.3
		c1.8-1.6,4.4-5.1,4.6,1.2c0.1,2.3,2.3,2.2,3.7,0.8c2-2.2,3.7-2.4,5.8-0.1c1.4,1.5,3,1.7,3.3-1c0.1-1.3-0.2-3,1.5-3.2
		c1.6-0.3,1.5,2.3,1.8,2.3c1.8,0.2,2.5,1,3.2,2.8c1.3,3.2-0.1,4.6-2.7,5.6C-728.2-58.9-727.1-57.4-728.1-57.1z"/>
	<path class="st0" d="M-492-57c0-0.3,0-0.7,0.1-1c-1.3-2.2,0.4-2.1,1.7-2.1c3.7-0.1,7.3-0.1,11-0.1c6.6-0.6,13.2-0.3,19.8-0.2
		c0.8,0.5,0.9,1.2,0.6,2c-1.7,1.3-4.1,0.4-5.6,2c-0.9,0.6-1.9,1.1-2.9,1.3c-1.2,0.2-2.3,0.7-3.2,1.6c-0.8,0.7-1.5,1.4-2.3,2.1
		c-1.8,1.3-1.7,3.5-2.5,5.3c0.6,1.3,0.5,2.2-1.3,2.2c-5.8-0.1-11.6-0.6-17.4-1.5c-0.1,0-0.2-0.2-0.2-0.3c0-0.2,0.1-0.3,0.2-0.4
		c1.1-1.4,2.3-2.7,3-4.3C-490.5-52.8-489.4-55.2-492-57z"/>
	<path class="st3" d="M-512.8,3c-1.6,9.2-4.8,17.9-9.5,25.9c-0.8,1.5-1.6,3.8-4,2.4c-2-1.1-1-2.9-0.3-4.4
		c5.3-11.7,8.3-23.7,5.8-36.6c-0.7-3.6,1.6-5.1,4.9-5.4c3.9,0.5,3.7,3.8,4.5,6.4c0,2.4,0,4.7,0,7.1C-512,0-512.1,1.6-512.8,3z"/>
	<path class="st3" d="M-442,257c-1.3-1-2.5-2-3.8-2.9c-2.9-2-5.5-0.7-8,0.9c-1.7,1.3-3.3,2.7-5,4c-1.1-0.3-1.9-1-2.3-2.1
		c-1-4.3-2.7-8.6-1-13.1c1.2-1.3,2.9-1.7,4.4-2.3c1.2-0.4,2.4-0.9,3.4-1.7c0.4-0.2,0.8-0.3,1.2-0.4c1.1-0.1,1.9-0.7,2.5-1.6
		c0.4-0.5,0.7-1,1.1-1.5c0.8-1,1.3-2,0.7-3.2c-0.4-1-0.8-2-1.6-2.8c-0.3-0.3-0.6-0.5-0.9-0.8c-0.5-0.4-0.9-0.8-1.3-1.3
		c-0.4-0.7-0.9-1.3-0.4-2.1c4.6,0.4,7.4,3,8.2,7.3c1.4,7.3,2.4,14.7,3.6,22.1C-441,256.3-441.2,256.8-442,257z"/>
	<path class="st5" d="M-439.7-59.8c5.1,0.1,9.8,5,9.7,10.1c-0.1,5.3-4.8,9.8-10.1,9.6c-5.1-0.2-9.4-4.6-9.4-9.7
		C-449.5-55-444.7-59.9-439.7-59.8z"/>
	<path class="st2" d="M-473-52.1c0.5-0.6,1-1.3,1.4-1.9c1.5,0.1,2.4-1,3.4-1.9c0.9-0.4,1.9-0.7,2.8-1.1c2,0.1,3.7-1.4,5.8-1
		c0.3-0.2,0.4-0.5,0.6-0.8c0.2-0.5,0.5-0.7,1-0.7c1.2,0.1,2.2,0.6,3.1,1.3c4.4,3.6,4.1,5.7-1.1,8.4c-1.8,1.6-4.2,1.7-6.4,2.5
		c-2.6,1.6,0.6,3,0.2,4.5c2.7,3.1,5.4,6.2,8.1,9.3c1.1,1.2,1.8,2.6,0.6,3.9c-1.2,1.4-2.7,0.8-3.9-0.4c-5.5-5.5-11.8-10-16.8-16
		C-475.8-48.4-474.4-50.2-473-52.1z"/>
	<path class="st0" d="M-458.1,225c-5.4,0.1-10-4.4-10-9.7c0-5.3,4.1-9.5,9.3-9.7c5.5-0.2,10,4.1,10,9.5
		C-448.8,220.3-453.1,224.9-458.1,225z"/>
	<path class="st0" d="M-890.1,227.9c-5.2-0.1-9.9-4.7-9.9-9.8c0-5.3,4.6-9.8,9.8-9.8c5.4,0.1,9.7,4.6,9.6,10
		C-880.8,223.3-885.3,227.9-890.1,227.9z"/>
	<path class="st0" d="M-542.1-12.8c0-5.3,4.5-9.6,10-9.6c5.2,0,9.5,4.7,9.4,10.2c-0.1,5.2-4.4,9.3-9.7,9.3
		C-537.9-3-542.1-7.3-542.1-12.8z"/>
	<path class="st2" d="M-748.1,223.2c-2.2-1.8-3.7-4.1-4.1-7c-1-1-1-2.4-1.3-3.7c-0.1-0.4-0.1-0.9,0-1.3c0.5-1.2,1-2.5,1.9-3.5
		c0.5-0.5,1-0.9,1.5-1.3c1.4-0.8,2.7-1.8,4.1-2.6c2.1-0.9,4.2-1.2,6.4-0.4c1.5,0.8,3.2,1.1,4.6,2.1c1,0.7,1.9,1.6,2.6,2.6
		c0.8,1.3,1.3,2.7,1.4,4.3c0.1,1.5,0.1,3.1,0.1,4.6c0,1,0,2.1-0.3,3.1c-0.1,0.8-0.5,1.5-1,2.1l0,0c-1.7,1-2.8,2.9-4.7,3.6
		c-1,0.4-2,0.9-3.2,0.9c-1.3-0.2-2.6-0.4-3.9-0.5c-0.4-0.1-0.9-0.2-1.3-0.3C-746.4,225.2-747.2,224.2-748.1,223.2z"/>
	<path class="st2" d="M-453.4,240l-0.5,0c-1,1.1-2.5,1.4-3.8,1.8c-1.6,0.6-3.3,1.1-4.7,2c-4.7,3.1-9.6,3.2-14.4,0.3
		c-3.5-2.1-7.8-2.8-10.3-6.5l0.1,0c-0.4-4,1.3-5.1,5-3.7c0.9,0.5,1.8,0.8,2.6,1.4c6.6,5.2,12.2,3.4,17.4-2.3c0.4-1.1,1.1-2.1,1.8-3
		l0.1,0.3l0.3,0c1.4-0.6,2.8-1.4,4.2-1.9c1.9-0.8,3.4,0.8,5.2,0.8c0.2,0,0.4,0,0.6,0.1c0.4,1.5,1.1,2.8,1.5,4.3
		c0.5,1.3,0.2,2.5-0.6,3.7c-0.4,0.3-0.7,0.7-1.1,1C-450.8,239.3-451.8,240.1-453.4,240z"/>
	<path class="st2" d="M-888.3,104c1.2,1.6,0.7,3.5,0.7,5.3c0,19.1,0,38.2,0,57.4c0,2.4-1.1,5.7,3.5,5.3c0.8-0.1,1.1,0.6,1.1,1.4
		c0,1-0.7,1.5-1.6,1.5c-2.7,0-5.3,0.1-8,0c-1.4-0.1-4,0.9-3.8-1.6c0.2-2.3,2.7-1,4.1-1.3c1.4-1,0.7-2.4,0.7-3.7
		c0-15.2,0-30.4,0-45.6c0-2.2,0.2-4.4-2.2-5.6c-0.3-0.3-0.9-0.7-0.9-1.2c0.1-3.9-0.4-7.8-1.8-11.4C-893.7,102.8-891,103.4-888.3,104
		z"/>
	<path class="st0" d="M-599.3,223.4c-5-0.1-9.5-4.9-9.4-9.8c0.2-5.2,4.8-9.3,10-9.1c5.2,0.2,9,4.3,9,9.4
		C-589.7,219.1-594.3,223.6-599.3,223.4z"/>
	<path class="st5" d="M-469.4,74.5c0,4.7-4.5,9.4-9.2,9.5c-5,0.1-9.5-4.5-9.4-9.6c0.1-5,4.4-9.2,9.4-9.1
		C-473.8,65.3-469.4,69.6-469.4,74.5z"/>
	<path class="st5" d="M-574.2,110.9c-4.6,0.1-9.4-4.4-9.6-9.1c-0.2-4.8,4-9.4,9-9.6c5.1-0.3,9.7,4.1,9.8,9.3
		C-565,106.2-569.4,110.8-574.2,110.9z"/>
	<path class="st2" d="M-648-189.9c-11.4-9.2-19.2-20.9-24.2-34.6c-0.6-1.8-0.8-3.4,1-4.3c2-0.9,3.5-0.2,4.3,2
		c3.7,10.9,9.5,20.4,19,27.4c1.4,1,1.2,2.1,0.8,3.5c0.1,1.4,0.1,2.8,0,4.2C-647.1-191.1-647.4-190.4-648-189.9z"/>
	<path class="st2" d="M-565,261c-0.3-3.6-0.7-7.2-1-10.8c-0.7-7.8-4.5-12.6-12.5-14.3c-6.3-1.3-6.4-2-4.5-8.9
		c1.8,0.7,3.6,1.6,5.5,2.2c10.1,3.1,16,9.5,16.8,20.3c0.2,2.8,0.6,5.6,0.8,8.4C-559.6,261.8-561.3,263-565,261z"/>
	<path class="st5" d="M-618.1-196.9c-0.4-1.7,0.8-2.4,1.9-3.2c8.8-6.4,14.2-15.2,17.7-25.3c0.1-0.3,0.3-0.6,0.4-0.9
		c0.6-2.3,2.1-3.6,4.4-2.5c2.1,1,1.7,2.7,0.9,4.7c-4.3,10.3-8.9,20.4-17.5,28.1c-2.1,1.9-3.9,4.1-5.8,6.2
		C-619.1-191.5-616.6-194.8-618.1-196.9z"/>
	<path class="st2" d="M-950.8-212c4.2,6,11.1,7.5,17.1,10.6c1.4,0.7,3.9,0.7,2.7,3.4c-0.9,1.6,1.2,4.3-1.9,5
		c-5.4-3.1-11-6.1-16.3-9.5c-7.3-4.7-8.6-12.8-10-20.3c-0.6-3.5,2.8-3.7,5.4-1.3C-951.5-220.3-949.7-216.6-950.8-212z"/>
	<path class="st2" d="M-614.1,232c0,1.6-0.4,2.5-2.3,3.1c-14.2,4.6-15.9,6.9-16.5,21.7c0,0.8,0,1.7-0.1,2.5c-0.1,1.6-1,2.5-2.5,2.6
		c-1.8,0.2-2.7-1-3.1-2.6c-3.4-14.4,9.7-31.6,24.2-31.8c0.1,0,0.1,0.3,0.2,0.4C-614,229.3-614,230.7-614.1,232z"/>
	<path class="st2" d="M-902-198.6C-902-198.6-902-198.5-902-198.6c-0.8-2.4,1.3-2.1,2.4-2.7c3.8-1.9,7.7-3.7,11.5-5.5
		c3.6-1.6,5.7-4.3,6.3-8.2c-0.6-3.1,0.6-5.7,2.5-8.1c0.8-1.8,1.9-3.3,4.2-2.3c2.1,1,1.7,2.6,1.4,4.6c-2.1,10.8-7.5,18.9-18,23.2
		c-2.9,1.2-5.5,3-8.2,4.6C-902.8-194-900.9-196.8-902-198.6z"/>
	<path class="st3" d="M-739.8,226c0.8-0.4,1.6-0.7,2.4-1.1c1.2,0,1.5,0.7,1.3,1.7c-2.4,0.7-3.5,2.1-2.9,4.7
		c1.4,5.9,0.9,12.7,7.1,16.6c2.1,2.1,2.3,4.2,0.3,6.5c-2.6,2-5,1.9-7.4-0.4c-0.7-0.6-1.4-1.1-2-1.7c-0.7-1.5-1.8-2.7-2.6-4.1
		c-0.8-1.7-1.2-3.5-1.1-5.4c-1.3-5.2-0.5-10.8-2.3-16c-0.3-0.2-0.4-0.5-0.4-0.7c0-0.3,0.1-0.4,0.2-0.4c0.7-0.7,1.6-0.8,2.5-0.8
		c0.2,0,0.4,0,0.7,0C-742.9,226.4-741.1,225.4-739.8,226z"/>
	<path class="st2" d="M-760.4-66.4c0.1,4.6-4.3,9.1-8.9,9c-4.3-0.1-8.6-4.3-8.7-8.7c-0.1-4.7,4.1-8.9,8.8-8.9
		C-764.5-74.9-760.5-70.9-760.4-66.4z"/>
	<path class="st5" d="M-925.1-210.4c0.2-4.6,4.2-8.4,8.8-8.3c4.8,0.1,8.7,4.3,8.5,9.2c-0.2,4.5-4.5,8.5-8.8,8.4
		C-921.2-201.3-925.3-205.7-925.1-210.4z"/>
	<path class="st3" d="M-777.9,144.7c-0.3-0.6-0.7-1.1-1-1.7c-1.8-2.7,0-4.8,1.3-6.8c2.2-3.2,3.8-6.6,4.6-10.4c0.3-1.6,1-3.2-0.4-4.7
		c-3.5-1.6-7.2-0.3-10.8-0.8c-2-0.2-4.5,0.4-5.1-2.6c1-2,2.9-1.1,4.4-1.2c5-0.4,10.1,0.5,15.1-0.4c3.4-1.5,6-0.1,7.6,2.9
		c0.5,1,2.5,3.2,0.1,4.2c-2,0.9-1.4-2.2-3.4-2.9c-1,11.8-6.7,21.6-12.3,31.5c-0.7-0.6-0.9-1.4-0.7-2.2
		C-778.1,148-779,146.2-777.9,144.7z"/>
	<path class="st5" d="M-918.9,65.7c4.7,0,8.7,3.7,8.8,8.3c0.1,4.6-4.3,9.1-8.9,9c-4.4-0.1-8.5-4.3-8.5-8.8
		C-927.4,69.4-923.7,65.7-918.9,65.7z"/>
	<path class="st0" d="M-623.9-208c0.1,4.7-4,9-8.6,9c-4.5,0-8.5-4-8.6-8.5c-0.1-5,3.6-8.8,8.6-8.8C-627.7-216.3-624-212.7-623.9-208
		z"/>
	<path class="st2" d="M-803.9,151.7c-1.6-3.5-2.9-7.1-4.7-10.4c-3.6-6.5-6-13.3-6.6-20.6c-1.8-0.5-1.5,0.9-1.9,1.7
		c-0.4,0.8-1.1,1.2-2,0.7c-0.7-0.4-0.6-1.1-0.5-1.7c0.4-4.1,4-6.3,8.5-5.3c5.4,0.9,10.9,0.1,16.3,0.4c1.2,0.1,3-0.4,3.1,1.5
		c0,1.6-1.6,1.9-2.9,2.2c-4.2,0.7-8.6-0.5-12.8,0.9c-2.4,4.4,0.5,7.9,2,11.6c1.2,3,4.2,5.2,3.8,8.9c-1.5,2.2-1,4.6-0.9,7
		C-802.4,149.9-801.5,151.6-803.9,151.7z"/>
	<path class="st2" d="M-463.9,87.9c-0.1-1.3,0.2-1.6,1.6-1.4c3.7,0.6,7.5,1,11.3,1.2c8.7,0.4,15,4.4,19.3,11.8
		c1,1.8,2.4,3.6,0.3,5.2c-2,1.5-3.7,0.3-4.9-1.5c-2.5-1.3-3.4-3.8-4.8-6c-2.9-2.7-6.4-3.1-10.2-3c-4.2,0.1-8.5,1.1-12.6-0.8
		C-463.8,91.4-463.7,89.6-463.9,87.9z"/>
	<path class="st5" d="M-521.9,104c-1.6,1.3-3.3,2-4.8,0.2c-1.2-1.5-0.4-3,0.5-4.6c4.3-7.5,10.6-11.6,19.4-12c4.1-0.2,8.3-0.7,12.5-1
		c0,0.1,0.3,0.4,0.3,0.6c-0.3,7-0.3,7.1-7.7,7c-5.8-0.1-11.7-1.2-16.3,3.9C-518.7,100.4-520.1,102.4-521.9,104z"/>
	<path class="st2" d="M-756.1-197c0.1-2-1.6-2.7-3.2-4.6c11.2-4.1,19-10.8,19.2-23.4c1.1-1.7,2.5-2.8,4.5-1.5c1.6,1.1,1.2,2.6,1,4.4
		c-1.6,11.8-7.8,20.1-18.2,25.4C-754-196.2-755.2-194.4-756.1-197z"/>
	<path class="st2" d="M-802.1-225c0.1,12.7,7.8,19.3,19.1,23.3c-2.1,2.1-3.6,4-4.1,6.5c-2.6-1.7-5.1-3.7-7.9-5.1
		c-9.2-4.9-10.9-14-13-22.8c-0.3-1.4-0.1-2.7,1.3-3.5C-804.6-227.8-803.4-226.3-802.1-225z"/>
	<path class="st3" d="M-874.9,235.1c5.9,1.7,10.8,5.6,16.3,8.3c0.5,0.3,1.1,1,1.1,1.6c0.1,6.1,0.2,12.3,0.1,18.4
		c0,1.5-1.4,2.2-2.9,2c-1.5-0.2-2.4-1.2-2.5-2.7c-0.1-2.3-0.1-4.6-0.1-7c0-8,0-7.9-7.3-10.6c-1.6-0.6-3.8-0.5-3.9-3
		C-875,239.8-876.4,237.6-874.9,235.1z"/>
	<path class="st5" d="M-941.3,234.5c2,0.1,3.3,1.2,4.3,2.9c2.7,4.7,5.5,9.4,8.3,14.1c1.6,2.6,1.7,5.1-1.2,6.8
		c-2.8,1.6-4.7,0-6.1-2.4c-2.9-4.8-5.8-9.6-8.5-14.5C-946.5,237.9-944.7,234.5-941.3,234.5z"/>
	<path class="st2" d="M-939.8-73c0.2,11.1,8.7,15,17,19c-0.9,1.7-2.9,2.1-3,4c-0.5,3.2-2.1,1.5-3.4,0.7
		c-8.9-4.9-15.1-11.8-16.4-22.3c-0.3-2.3-1.7-5,1.6-5.8C-940.6-78.2-940.5-75.1-939.8-73z"/>
	<path class="st7" d="M-793,169.3c1.9-2.1,1.8-3.4-1.4-3.5c-3.8-0.1-7.5,0-11.3-0.1c-2-0.1-4.1-0.4-1.3-2.9c11-1.1,22.1-1.3,33.1,0
		c1.4,2.6,1.5,2.8-1.1,2.9c-3.6,0.2-7.2,0.1-10.8,0.1c-4.1-0.1-3.7,1.8-2.1,4.4c1.4-0.3,2.6,0.4,3.9,0.8c1.8,0.6,3.5,1.3,4,3.3
		c-6,3.9-12.5,1.9-18.8,1.5c-1.5-0.1-1.9-1.7-0.1-2.8c1.1-1.1,2.3-2.1,3.5-3C-794.8,169.2-793.9,169.4-793,169.3z"/>
	<path class="st2" d="M-896-48c-2.7-1-1.8-4.9-5.1-5.4c0.6-0.5,0.8-0.8,1.1-0.9c10.6-3.8,16.3-11.4,17.3-22.6c4.5-1,5.5-0.1,4.8,4.1
		c-1.5,9.1-5.1,17-13.7,21.6C-893.2-50.3-894.6-49.1-896-48z"/>
	<path class="st8" d="M-906.2,88.9c0.3-1.1,0.6-2.1,1.4-0.2c2.3,5.4,4.7,10.8,7.1,16.2c3.7,4.5,2.9,9.9,3.5,15.1
		c0.1,0.8,0.1,1.7,0.2,2.5c0.2,1.9-0.4,3.4-2.5,3.5c-1.9,0.1-2.5-1.2-2.8-2.8c-0.8-4.2-1.7-8.5-2.5-12.7c-0.4-2-0.9-3.9-2.2-5.5
		c-1.6-2.2-4.2-3.8-3.4-7.2c0.1-1.3-0.1-2.5,0.2-3.8C-906.7,92.4-907.4,90.4-906.2,88.9z"/>
	<path class="st2" d="M-787.8,168.8c0.5-3.5,3.2-1.7,4.7-1.7c9.4,0,9.4-2.2,11.5,8.9c0.7,3.6,1.5,7.1,2.3,10.6c0.6,2.5,0,4.5-2.6,5
		c-2.5,0.5-3.4-1.4-4-3.5c-1.4-5.2-1.1-10.8-4-15.6c-1.6,0.2-2.8-1.1-4.3-1.4C-785.5,170.6-787,170.3-787.8,168.8z"/>
	<path class="st2" d="M-793,169.3c-0.6,0.2-1.3,0.5-1.9,0.7c-1.2,1-2.4,2-4,1.9c-2.3,0.1-2.8,1.7-3.2,3.7c-0.8,4.2-1.8,8.4-2.7,12.7
		c-0.5,2.3-1.5,3.9-4,3.4c-2.4-0.5-2.9-2.4-2.4-4.6c1.2-5.5,2.2-11.1,3.4-16.6c0.5-2.2,1.7-3.8,4.1-3.4
		C-800.1,167.7-795.8,164.9-793,169.3z"/>
	<path class="st7" d="M-933.9,107c-2.1,4.2-2.4,8.8-3.4,13.4c-0.4,2.1,0.4,5.8-3.3,5.6c-3.9-0.3-1.9-3.8-2.3-5.9
		c0.6-5.5,0-11.3,3.8-16c2.4-5.2,4.8-10.5,7.2-15.7c1.3-0.6,1.3,0.4,1.4,1.2c0.2,1.5-0.4,3,0.7,4.3c0.1,2-0.3,4-0.1,6
		C-929.8,103.1-932.7,104.6-933.9,107z"/>
	<path class="st0" d="M-558.7,259c4.9-0.1,5.1-2.9,4.7-6.1c-0.5-4.2,2.7-2.8,4.6-2.8c2,0,4.9-1.3,4.6,2.9c-0.1,1.7-1.5,4.3,1.8,5.3
		c1.2,0.4,0.4,1.4-0.4,1.6c-2.1,0.4-1.2,2-1.4,3.1c-0.3,1.6,0.9,4-0.7,4.5c-2.2,0.7-4.9,0.5-7.4,0.3c-1.6-0.1-1.1-1.8-1-2.8
		C-553.7,261.8-554,259.2-558.7,259z"/>
	<path class="st0" d="M-639.5,259.1c-4.4,0.3-4.9,2.6-4.5,5.7c0.7,4.4-2.7,3-4.8,3.1c-2.2,0.1-4.8,0.9-4.4-3.2c0.2-1.7,1.6-4.4-2-5
		c-1-0.2-0.9-1.5,0.2-1.6c2.3-0.2,2.2-1.8,1.9-3.2c-1.1-5,1.8-5.1,5.5-5c2.6,0.1,4.2,0.4,3.6,3.4
		C-644.6,256.6-643.5,258.6-639.5,259.1z"/>
	<path d="M-885.3-74.9c0.4,1.5,0.4,2.6-1.6,2.6c-17-0.1-34.1-0.2-51.1-0.3c-0.3,0-0.6-0.3-0.9-0.4c0.6-2.9,2.9-1.6,4.4-1.6
		C-918.1-74.8-901.7-74.8-885.3-74.9z"/>
	<path class="st9" d="M-727.4-231.1c2.9-0.7,4,0.4,4.1,3.6c0.1,2.6,0.5,5,0.1,7.8c-0.5,3.5-1.4,4.2-4.7,4.3c-3.8,0.1-3.5-1.8-4-4.5
		c-0.5-2.6,0.2-5,0.1-7.4C-732-231-730.5-231.7-727.4-231.1z"/>
	<path class="st9" d="M-815.2-231c7.6-1.3,4.5,4.5,5.1,6.9c1.6,6.2-1,9.2-6.2,8.5c-1-0.1-2-0.1-2.3-1.4c-0.8-4.2-1.3-8.5,0-12.7
		C-817.9-232.2-815.9-230.8-815.2-231z"/>
	<path d="M-446.2,312.2c-0.6,2.9-2.9,1.6-4.4,1.6c-16.7,0.1-33.4,0.1-50.2,0.1c-0.9-0.9-0.7-1.7,0.3-2.4c8.6-1,17.2-0.3,25.8-0.4
		c7.6-0.1,15.2-0.1,22.9,0C-449.9,311-447.8,310.6-446.2,312.2z"/>
	<path class="st9" d="M-425.1,93.4c2.7,2.1,6.8,3.6,7.2,5.8c0.4,2.3-1.3,5.9-3.4,8.3c-0.5,0.6-1.4,0.4-1.7-0.2
		c-1.3-2.1-1.3-5.8-5.5-4.1c-0.2-0.6-0.3-1.2-0.5-1.9C-423.9,100.8-427.9,95.5-425.1,93.4z"/>
	<path class="st8" d="M-531.3,97.3c-0.1,0.9-1.2,1.9,0,2.6c2.9,1.9,4.9,3.4-0.8,3.1c-0.8,0-0.9,0.8-1.2,1.3c-0.8,1.3-0.4,4-2.7,3.3
		c-1.3-0.4-2.3-2.5-2.9-4.1c-1.3-3.3,1.5-8.4,5.3-9.4C-530.3,93.2-531,95.5-531.3,97.3z"/>
	<path class="st10" d="M-437,103.9c0.4,2.2-2,4.2-0.4,6.6c0.6,0.9-0.8,2.1-1.6,1.7c-1.8-0.9-3.5-1.8-5-3.4c-1.6-1.6-2.3-2.1-1.2-4.5
		c1.1-2.3,0.7-5.3,4.1-6.1C-438.6,99.3-438.5,102.1-437,103.9z"/>
	<path class="st9" d="M-517.2,99c0.7-0.5,1.4-1.1,2.2-0.4c2.3,2.3,3.3,5.7,3,8.4c-0.2,1.9-3.7,3.6-5.9,5.1c-1.1,0.8-2.6-0.1-2.2-1.4
		c0.8-2.4-0.3-4.4-0.8-6.6C-520,102.1-518.9,100.3-517.2,99z"/>
	<path class="st9" d="M-960.1-220.9c-5.2-0.1-1.2,5.8-4.5,5.8c-3.3,0-5.4-3.4-5.7-6.1c-0.3-2.8,2.3-5.3,5-6.8c0.3-0.2,1.2,0,1.4,0.2
		C-962.5-225.7-963.5-222.6-960.1-220.9z"/>
	<path class="st11" d="M-810,120c3.3-2.2,7-0.5,10.4-1c2.5-0.4,5.1,0.5,7.5-0.6c0-0.5,0-0.9,0-1.4c-3.6,0-7.3,0.2-10.9-0.1
		c-2.7-0.2-5.6,1-8.1-0.9c3-0.6,6.4,1.2,9.2-1.2c2.1,1.7,4.7,1,7,1c2,0,3.7,0.3,4.9,2c0.3-0.5,0.5-0.5,0.8,0c4,2.2,8.3,0.4,12.4,1
		c2,0.3,4.2-1,5.9,1c-2.6,2.1-5.7,1.3-8.6,1.5c-1.8,0.1-3.7,0-5.4,0.6c-3.9,0.5-7.9,0.5-11.8,0.1C-801.1,120.7-805.9,122.8-810,120z
		"/>
	<path class="st12" d="M-882.9-215c-3.9-0.3-6-3.4-6.7-6.3c-0.5-2.4,2.6-4.4,4.5-6.3c1.4-1.4,2.3-0.2,2.8,1.2
		c0.4,1.1-0.7,2.7,1.1,3.4C-879.8-219.9-881.4-217.4-882.9-215z"/>
	<path class="st13" d="M-867.6-228.2c1.1,1.5,3.2,2,4.2,4c1.4,2.7,0.9,5.2-1,6.9c-1,0.9-4.9,6.4-4.8-1.1c0-1.3-0.8-1.6-1.9-1.7
		c-0.8,0-1.4-0.9-0.9-1.3c2.3-1.6,2.9-3.8,3.3-6.3C-868.7-227.8-868.2-227.9-867.6-228.2z"/>
	<path class="st14" d="M-951.8-222.9c0.6-0.1,1.3,0,1.6-0.8c0.7-1.5-1.3-4.6,2.2-4.2c2.6,0.3,4.7,5.2,4.5,7.7
		c-0.2,2.6-3.2,2.8-3.5,5c-1.2,1-2.9,1-3.2-0.3C-950.8-217.9-953.6-220-951.8-222.9z"/>
	<path class="st15" d="M-784.1-49c-3.4,2-2.5,6.6-5.6,9.1c-2.7-3.3-2.9-7.5-4.1-11.2c-0.3-0.8-0.4-1.7,0.8-1.9c0.8-0.1,1.6,0,1.9,1
		c0.4,1.4-0.9,4.2,1.4,3.8c1.7-0.3,4.3-1.5,4.7-4.4c0.1-0.8,1.3-1.5,1.1-2.6c0.6,0,1.3,0,1.9,0c-1.5,1.8-1,4-1.2,6
		C-783.5-48.5-783.8-48.5-784.1-49z"/>
	<path class="st8" d="M-893.7,116c2.2-0.1,2.8,1.1,2.8,3.1c0,16.8,0,33.6,0,50.3c0,1-0.2,2-1.2,2.5c0.5-17.6,0.4-35.2,0-52.9
		C-893.3,118.3-895.6,118.2-893.7,116z"/>
	<path class="st16" d="M-501,312.1c0.1,0.6,0.1,1.2,0.2,1.8c-2.3-0.6-0.7-2.5-1.3-3.7c18.4,0,36.8,0,55.1,0c0.1,0.2,0.1,0.5,0.1,0.7
		c-1.5,1.1-3.2,0.5-4.8,0.5c-14.8,0-29.6,0-44.4,0.1C-497.7,311.5-499.5,311-501,312.1z"/>
	<path class="st17" d="M-774,162.8c-11,0-22.1,0-33.1,0c2-1.7,4.9,0.3,6.9-1.6c5.1,0,10.2-0.3,15.3,0.1c3,0.2,4.1-1.1,4.7-3.6
		C-781,163-776.4,161.6-774,162.8z"/>
	<path class="st18" d="M-501,312.1c1.4-1.8,3.4-1,5.1-1c16.3-0.1,32.7-0.1,49-0.1c0.2,0.4,0.4,0.9,0.6,1.3
		C-464.5,312.2-482.7,312.1-501,312.1z"/>
	<path class="st19" d="M-939.1,104c-1.3,5.3-2.6,10.7-3.8,16c0,0-0.4,0.1-0.4,0.1l-0.4,0c-0.1-1.8,0.5-3.5-0.3-5.3
		c-1.4-3.3-4.6-7.3,2.3-8.5c0.8-0.1,1-1.2,1-2.1c0.2-0.5,0.4-0.5,0.7-0.1C-939.7,104-939.4,104-939.1,104z"/>
	<path class="st20" d="M-588,263.9c0.4,0.4,0.7,0.7,1.1,1.1c0,1-0.1,2.1-0.1,3.1c-0.7-1-0.8-2.4-2.6-2.4c-6.4,0.1-12.8,0-19.2,0.1
		c-0.7,0-1.3,0.8-2,1.3c-0.5-1.3,0.5-2.1,0.9-3.1C-602.7,264-595.4,263.9-588,263.9z"/>
	<path class="st21" d="M-585.1,127.7c1.2-3.8,1.2-8,5-10.6c0.8-0.5,1.7-1.5,2.3-1.4c1.2,0.3,0.9,1.7,0.7,2.5
		C-578.1,122.7-580.1,126.5-585.1,127.7z"/>
	<path class="st22" d="M-927.8-162.3c7.6,0.7,15.1,0.5,22.7,0.1c0,0.7,0.1,1.5,0.1,2.2c-7.6,0.1-15.2,0.1-22.8,0.2
		C-927.8-160.6-927.8-161.4-927.8-162.3z"/>
	<path class="st16" d="M-467.2,126.2c-7.6-0.1-15.2-0.1-22.8-0.2c0-0.7,0-1.4,0-2.1c7.3,0,14.6,0.1,22,0.1
		C-467.7,124.8-467.4,125.5-467.2,126.2z"/>
	<path class="st8" d="M-631.4,258.4c6.4,0,12.9,0,19.3,0c0,0.3,0,0.7,0,1c-6.4,0-12.9,0-19.3,0
		C-631.4,259.1-631.4,258.8-631.4,258.4z"/>
	<path class="st19" d="M-893.7,116c-0.8,1.7,1.8,1.7,1.5,3.1c-0.7,0.3-1.3,0.7-2,1c-1.2-5-2.3-10.1-3.5-15.1c0.3-0.1,0.6-0.1,0.9,0
		c0.3-0.4,0.6-0.4,0.8,0.1c-1.1,3.6,4.8,0.4,3.8,3.9c-0.6,2.2-2.1,4.1-1.6,6.5C-893.8,115.7-893.8,115.8-893.7,116z"/>
	<path class="st23" d="M-487,233.1c0.4-2.3,0.7-4.6,1.1-6.8c0.2-1.3,0.8-2.2,2.2-2.2c1.9,0,2.1,1.4,2,2.8c-0.1,1.8,0,3.7-1.1,5.3
		C-484.2,233-485.5,233.4-487,233.1z"/>
	<path class="st24" d="M-759.1-156.9c-0.6-2.3-2.1-2.7-4.3-2.7c-6.2-0.1-12.4,0.6-18.6-0.4c-0.1-0.3-0.1-0.6,0-0.9
		c7.3-0.1,14.6-0.2,22-0.3C-759.3-159.8-758.5-158.5-759.1-156.9z"/>
	<path class="st25" d="M-803.9,151.7c2-1.3,0.7-3.2,0.7-4.8c0-2.1-0.3-4.2,1.3-5.9c1.6-1.4,3.1-1.4,4.7,0c-4.3,0.6-5.4,3.2-4.5,7.2
		c0.4,1.9,0.4,3.9,0.6,5.8C-802.7,154-803.7,153.3-803.9,151.7z"/>
	<path class="st26" d="M-458.2-58.9c-0.3,0-0.6,0.1-0.9,0.1c-2.4-2.4-5.3-0.8-7.9-1c-4.1-0.4-8.2,0.5-12.3-0.3
		c7.7-1.1,15.4-0.7,23.1-0.7C-455.6-59-457.2-59.2-458.2-58.9z"/>
	<path class="st19" d="M-951.8-222.9c-0.5,2.8,2.4,4.5,2.2,7.4c-0.1,1,1.6,0.5,2.5,0.3c-1.2,1-2.5,2.1-3.7,3.1c-1-4-2.1-8-3.1-12
		C-953.2-223.6-952.5-223.3-951.8-222.9z"/>
	<path class="st27" d="M-901.1-14.8c-7-0.1-14-0.1-20.9-0.2c0-0.4,0.1-0.8,0.1-1.3c5.4,0,10.8,0,16.2,0c1.6,0,3.3,0.4,4.5-1.1
		C-901.1-16.6-901.1-15.7-901.1-14.8z"/>
	<path class="st11" d="M-789.3,118c-0.3,0-0.5,0-0.8,0c0.2-2.4,2-1.9,3.6-2c2.5-0.2,5.2,0.7,7.4-1c2.8,2.3,6.2,0.5,9.2,1.2
		c-3.5,2-7.3,0.4-10.9,0.9C-783.6,117.4-786.7,115.8-789.3,118z"/>
	<path class="st28" d="M-758.1-15.8c-7.3,0-14.6,0-21.9,0c0-0.4-0.1-0.8-0.1-1.2c7.3,0,14.6-0.1,22-0.1
		C-758-16.7-758.1-16.3-758.1-15.8z"/>
	<path class="st29" d="M-779.9,111.9c-3.2,0-6.4,0-9.6,0c3-2.6,6.4-1.5,9.6-1.7C-779.8,110.7-779.9,111.3-779.9,111.9z"/>
	<path class="st29" d="M-801.1,110.1c3.2,0.1,6.4-0.5,10.6,0.7c-4.1,1.8-7.4,0.9-10.6,1C-801.1,111.3-801.1,110.7-801.1,110.1z"/>
	<path class="st9" d="M-749.1,203.7c2.5-2.3,5.5-2.7,8.8-2.5c1.2,0.1,1.9,0.5,1.5,1.9c-0.2,0.1-0.4,0.3-0.6,0.4
		c-2.1,0.4-4.4-0.6-6.3,0.8c-1.1,0.2-2,1.5-3.4,0.8C-749.5,204.5-749.5,204.1-749.1,203.7z"/>
	<path class="st12" d="M-455.9-48.3c-0.6,2-2.6,2.4-4.1,3.4c-1.5,0.5-3.1,0.7-3.9-1c-0.9-2,1.4-1.7,2.2-2.6
		C-459.8-48.3-457.8-49.4-455.9-48.3z"/>
	<path class="st30" d="M-907.2,98c1,2.3,2.1,4.7,3.1,7l-0.5,0l-0.5,0c-2.2-1.8-5.7-3.1-3.1-7C-907.8,97.5-907.5,97.5-907.2,98z"/>
	<path class="st14" d="M-732,222c0-0.5,0-1-0.1-1.5c1.4-3.1,0.8-6.4,1.2-9.6c0.2-0.5,0.5-1,1-1.3c0.9,0.3,1.1,1.1,1,1.9
		c0.6,2,0.5,3.9,0,5.9C-729.3,219.4-728.8,222-732,222z"/>
	<path class="st31" d="M-902-198.6c2,1.4-0.2,4.3,2,5.7c-2.3,1.3-1.5,4.1-2.9,5.8C-902.6-190.9-902.3-194.7-902-198.6z"/>
	<path class="st32" d="M-618.1-196.9c2.7,1.7-0.4,5.2,2.1,6.9c-0.9,1.3-1.9,2.6-2.8,3.9c-0.6-3.4,1.4-6.7,0.1-10.1
		C-618.5-196.3-618.3-196.6-618.1-196.9z"/>
	<path class="st33" d="M-517.2,99c-0.5,2.3-0.9,4.6-3.8,5.1c-0.3,0-0.7,0-1,0c0.4-2.6,2.1-4.3,4-5.9
		C-517.7,98.4-517.4,98.7-517.2,99z"/>
	<path class="st25" d="M-512.1-9c-0.9-2.3-1.2-5-3.9-6c0-0.6-0.3-1.6,0-1.7c1.7-0.9,2,1.2,3,1.7c0.7,2,2.3,3.7,1.8,6
		C-511.5-8.6-511.8-8.6-512.1-9z"/>
	<path class="st34" d="M-437,103.9c-3.3-0.5-2.6-3.8-4.1-5.7c0-0.4,0-0.8,0-1.2c2.6,1.2,3.8,3.6,4.8,6
		C-436.5,103.3-436.7,103.6-437,103.9z"/>
	<path class="st35" d="M-888,269.3c2.7,1.7,5.7,2.1,8.8,1.6c0.9-0.4,1.2,0,1.1,0.9c-3.4,1.2-6.7,0.9-9.9-0.9
		C-888,270.3-888,269.8-888,269.3z"/>
	<path class="st5" d="M-881.8,229.9c-0.4,0.4-0.8,0.7-1.2,1.1c-2.3,0.9-4.7,0.5-7,0.3c-0.4-0.3-1.4-1.2-0.4-1.1
		C-887.6,230.3-884.7,227.5-881.8,229.9z"/>
	<path class="st36" d="M-933-193c2.2-1.1-0.2-3.9,1.9-5c0.3,0,0.7,0,1,0c-0.9,2.7,0.2,5.4-0.1,8C-931.1-191-932.1-192-933-193z"/>
	<path class="st7" d="M-753,210.9c0,0.3,0,0.5,0,0.8c0.2,1.8-0.5,3.6-0.2,5.4c-0.1,1.2,1.1,2.5-0.3,4c-2.1-3.9-2.5-7.6-0.7-11.5
		C-753.5,209.9-753.1,210.3-753,210.9z"/>
	<path class="st37" d="M-487,233.1c1.3-0.4,2.5-1.4,4.1-1c0.3,0.6,0.7,1.2,1,1.8c-3.3-0.9-4.5,1-5,3.7c-0.6-0.8-1.3-1.5-1.9-2.3
		C-488.8,234.1-487.7,233.8-487,233.1z"/>
	<path class="st38" d="M-783.9-35.9c0-2.1,0-4.1,0.1-6.2c0.7-0.9-0.2-2.3,1-3c1.3,2.3,0.8,4.8,0.7,7.3
		C-782.8-37.2-783.3-36.6-783.9-35.9z"/>
	<path class="st39" d="M-732,254c2-2,1.2-4,0.2-6c2.3,1,3.6,2.8,3.7,5.4c-2.5-1.7-2,2.4-3.8,1.9C-732.4,254.9-732.4,254.4-732,254z"
		/>
	<path class="st40" d="M-874.9,235.1c0.2,2.3,0.5,4.7,0.7,7c-0.3,0.4-0.6,0.7-1,1.1c-1.4-2.6-0.8-5.5-1.7-8.2
		C-876.1,235-875.5,235-874.9,235.1z"/>
	<path class="st20" d="M-771.8,270.1c1.5-2.1,0.3-4.9,2.1-6.9c0.7,2.5,1.5,5-1.3,6.8l-0.4,0.1L-771.8,270.1z"/>
	<path class="st27" d="M-933.9,107c1.1-2.3,2.2-4.6,3.2-6.9c0.5-0.7,1-0.7,1.5,0l0.2-0.1c1.3,2.2-0.1,3.3-1.9,4
		c-0.6,1-1.2,1.9-1.8,2.9C-933.1,106.9-933.5,107-933.9,107z"/>
	<path class="st41" d="M-461.7-47.8c0.1,1.1-2.2,0.6-1.3,2.1c0.7,1.3,2,0.9,3.1,0.9c-0.7,0.7-1.4,1.4-2.2,2c-1-1-2.2-1.8-3.1-2.9
		c-2-2.5-0.2-2.4,1.6-2.3C-462.9-48.5-462.3-48.4-461.7-47.8z"/>
	<path class="st42" d="M-882.9-215c0.2-2.7,2-5.1,1.7-8c0.7,0,1.3-0.1,2-0.1c-0.5,2.8-0.9,5.6-2.5,8.1
		C-882.1-214.9-882.5-215-882.9-215z"/>
	<path class="st14" d="M-736.1,226.7c-0.4-0.6-0.9-1.1-1.3-1.7c1.8-1,3.1-2.9,5.4-3C-732.3,224.5-733.7,226-736.1,226.7z"/>
	<path class="st4" d="M-744.7,242.9c0.6,1.7,1.2,3.3,1.8,5c0.4,1.1-0.1,1.3-1,1.1c-1.7-0.3-0.2-2.8-2-3
		C-744.4,245.5-747.8,242.8-744.7,242.9z"/>
	<path class="st43" d="M-473-52.1c-0.4,2-0.7,4.1-1.1,6.1c-0.4,0-0.9,0-1.3,0C-476.9-48.9-476.1-51-473-52.1z"/>
	<path class="st44" d="M-729.9,209.7c-0.1,0.5-0.2,1.1-0.3,1.6c-1.6-0.2-1.5-1.8-2.3-2.8c-0.4-1.3-1.6-1.9-2.3-2.9
		c-0.4-0.3-0.6-0.6-0.5-1.1c0.3-0.6,0.7-1.1,1.4-0.6C-731.8,205.4-729.8,206.8-729.9,209.7z"/>
	<path class="st45" d="M-906.2,88.9c0.3,1.8,0.2,3.6-0.7,5.3c-0.6-0.1-0.7-0.7-0.9-1c0-2.4,0-4.8,0-7.2
		C-906.2,86.4-907.1,88.1-906.2,88.9z"/>
	<path class="st7" d="M-940,104c-0.2,0.1-0.5,0.1-0.7,0.1c-3.1-0.1-6.3-0.1-9.4-0.2C-946.8,102.6-943.4,102.5-940,104z"/>
	<path class="st46" d="M-753,210.9c-0.4-0.4-0.7-0.9-1.1-1.3c0.2-1.6,0.8-2.9,2.3-3.6c1.3-0.2,1.2,0.9,1.6,1.6
		C-751.1,208.7-752.1,209.8-753,210.9z"/>
	<path class="st47" d="M-800.9,99.9c3.1,0,6.1,0,9.2,0c0,0.4,0,0.7,0,1.1c-3.1,0-6.2,0-9.3,0C-801,100.6-800.9,100.2-800.9,99.9z"/>
	<path class="st48" d="M-939,128.9c-0.1,1-0.6,1.4-1.5,1.4c-1.2-0.1-1.6-0.9-1.8-1.9c-0.3-1.3,0.6-1.2,1.4-1.2
		C-939.8,127.3-939,127.7-939,128.9z"/>
	<path class="st21" d="M-896.2,128.3c-0.3,1-0.6,1.9-1.8,2c-1,0-1.6-0.7-1.5-1.6c0.1-0.8,0.4-1.7,1.5-1.6
		C-897.3,127.1-896.4,127.2-896.2,128.3z"/>
	<path class="st24" d="M-890,231.3c2.3-0.7,4.7-0.7,7-0.3c0.3,0.7,0.7,1.3,1,2c-2.7-1.1-5.3-1.3-8.1-0.2
		C-890,232.3-890,231.8-890,231.3z"/>
	<path class="st49" d="M-461.7-47.8c-0.6-0.1-1.2-0.2-1.9-0.2c2.4-1.4,5-1.4,7.6-1.7c0,0.5,0.1,1,0.1,1.5
		C-457.9-48.1-459.8-48-461.7-47.8z"/>
	<path class="st50" d="M-801,105c3.1,0,6.1,0,9.2,0c0,0.4,0,0.7,0,1.1c-3.1,0-6.1,0-9.2,0C-801,105.7-801,105.4-801,105z"/>
	<path class="st51" d="M-780,106.1c-3.1,0-6.1,0-9.2,0c3-1.5,6.2-1,9.3-1C-780,105.4-780,105.7-780,106.1z"/>
	<path class="st8" d="M-896,105.1l-0.4-0.2l-0.4,0c2.5-3.8,5.6-1.8,8.6-0.9C-890.8,104.5-893.7,103-896,105.1z"/>
	<path class="st52" d="M-780,100.9c-3.1,0-6.3,0-9.4,0c0-0.3,0-0.7,0-1c3.1,0,6.2,0,9.3,0C-780,100.2-780,100.6-780,100.9z"/>
	<path class="st53" d="M-753.2,217.2c-1.3-1.9-1.2-3.7,0.2-5.4c1.9,1.2,0.8,2.9,0.8,4.4C-752.5,216.5-752.8,216.8-753.2,217.2z"/>
	<path class="st54" d="M-930,93.7c-2.2-1.2-0.3-4-1.9-5.4c0.1-1.1,0.8-1.8,1.8-2.3c0.1,2.3,0.2,4.6,0.3,6.9c0.2,0.2,0.2,0.4,0.1,0.6
		C-929.8,93.6-929.9,93.7-930,93.7z"/>
	<path class="st55" d="M-894,243.9c1.2-1,2.7-0.8,4.1-0.7c0.4,0.3,1,0.3,1.1,1c-1.6,1.1-3.4,0.7-5.2,0.9
		C-894,244.7-894,244.3-894,243.9z"/>
	<path class="st56" d="M-452.9,226.2c0.3,0.6,0.6,1.2,1,1.7c-1.3,1.2-2.9,0.2-4.3,0.8c-0.9,0.2-1.8,1-2.9,0.4
		C-458.5,224.9-454.4,228.2-452.9,226.2z"/>
	<path class="st19" d="M-606,144.9c-0.9-0.4-1.8-0.7-2.8-1.1c3.4-2.2,3.4-2.2,4.1,0.1C-605.1,144.2-605.5,144.5-606,144.9z"/>
	<path class="st57" d="M-799,171.9c1.1-1.2,2.5-1.6,4-1.9c0.1,3-2.5,2.2-4,3C-799,172.6-799,172.2-799,171.9z"/>
	<path class="st45" d="M-463.9,87.9c1.5,1.8,0.9,3.5,0.1,5.3c-0.3-0.3-0.6-0.7-1-1c0-1.1,0-2.2,0-3.2
		C-464.5,88.5-464.2,88.2-463.9,87.9z"/>
	<path class="st58" d="M-648-189.9c0-0.7,0.1-1.4,0.1-2.1c1-0.8-0.6-2.9,1.6-2.9c0,1.7,0,3.4,0,5.1
		C-646.8-189.7-647.4-188.3-648-189.9z"/>
	<path class="st20" d="M-614.1,232c-0.8-1.4-1.2-2.7,0-4c0.3,0,0.7,0,1,0c0,1.4,0,2.7,0,4.1l-0.5,0L-614.1,232z"/>
	<path class="st0" d="M-874.7,272.1c-0.9-0.1-1.7-0.2-2.6-0.2c0.1-0.9,0.5-1.3,1.3-1.5c0.9-0.7,1.8-1.3,2.8-2.1
		C-873,270-874.2,270.9-874.7,272.1z"/>
	<path class="st59" d="M-591,114c0.3-1.3,0.5-2.6,0.8-3.9c0.7,0.3,1.3,0.5,2,0.8c-0.5,1.1-1.1,2.1-1.6,3.2
		C-590.2,114.6-590.6,114.6-591,114z"/>
	<path class="st5" d="M-750.2,207.6c-0.3-0.8-0.6-1.5-1.6-1.6c0.2-1.5,1.6-1.8,2.7-2.4c0,0.3,0,0.7,0,1c1,1.4-0.8,1.9-1,2.9
		L-750.2,207.6z"/>
	<path class="st60" d="M-458.2-58.9c0.7-0.7,1.4-1.3,2.1-2c1.8,0.3,0.9,1.8,1.2,2.7C-456.1-58-457.3-57.6-458.2-58.9z"/>
	<path class="st61" d="M-450,270.1c0.2-2.6,2.5-2.3,4.1-2.9c0,0.4,0,0.7,0,1.1C-447,269.6-448.7,269.4-450,270.1z"/>
	<path class="st62" d="M-512.8,3c-0.1-1.4-0.2-2.8,0.7-4.1c0.3-0.4,0.7-0.5,1,0c0.1,1,0.2,2,0.3,2.9C-511.5,2.3-512.2,2.7-512.8,3z"
		/>
	<path class="st63" d="M-733.9,203.9c-0.4,0.3-0.7,0.6-1.1,1c-1.9,0.5-3-0.6-4.1-1.9C-736.9,201-735.4,202.5-733.9,203.9z"/>
	<path class="st31" d="M-783.9,170.9c1.3,0.6,2.7,1.2,4,1.8c-0.1,0.5-0.1,1.1-0.2,1.6c-1.2-1.6-3.2-1.7-4.7-2.6
		C-785,170.9-784.9,170.4-783.9,170.9z"/>
	<path class="st50" d="M-783.9,170.9c-0.3,0.3-0.6,0.5-1,0.8c-1.1-0.4-2.4-0.3-3.2-1.5c0.1-0.5,0.1-1,0.2-1.4
		C-786.5,169.5-785.2,170.2-783.9,170.9z"/>
	<path class="st64" d="M-778.1,149.9c0.1,0.6,0.1,1.2,0.2,1.8c-0.3,0.9-1,1.2-1.9,1.3c-0.3-1.5-0.3-2.9,0.7-4.2
		C-778.5,148.9-778.5,149.5-778.1,149.9z"/>
	<path class="st65" d="M-460.2,229.9c1.1,2-0.5,2.5-1.8,3C-463.4,230.7-462.7,229.8-460.2,229.9z"/>
	<path class="st66" d="M-744.7,225c-0.6,0.7-1.4,1-2.3,0.5c-0.7,0.1-1-0.3-1-1c0-0.4,0-0.8-0.1-1.3
		C-746.9,223.8-745.8,224.4-744.7,225z"/>
	<path class="st67" d="M-459.1,229c0.7-0.3,1.5-0.6,2.2-0.8c0.4,0.2,0.8,0.5,1,0.9c-1.3,0.6-2.1,2.9-4,1.1
		C-460,229.5-459.7,229.2-459.1,229z"/>
	<path class="st68" d="M-739,202.9c1.4,0.6,2.7,1.3,4.1,1.9l0.1,0.3l-0.3,0.2c0.3,0.2,0.4,0.4,0.3,0.6c-0.1,0.2-0.2,0.3-0.3,0.3
		c-1.3-0.6-2.7-1.3-4-1.9C-739.6,203.8-739.5,203.4-739,202.9c0,0,0.1,0.1,0.1,0.1C-738.9,203-739,202.9-739,202.9z"/>
	<path class="st69" d="M-490.7-49.9c-0.4,1.9-1.6,3.1-3.3,3.8c0-0.4,0-0.9,0-1.3c0.8-0.9,1.6-1.8,2.3-2.6
		C-491.3-50.4-491-50.3-490.7-49.9z"/>
	<path class="st70" d="M-728.8,217.5c0-2,0-3.9,0-5.9C-727.8,213.6-727.8,215.6-728.8,217.5z"/>
	<path class="st71" d="M-748,224.4c0.3,0.3,0.7,0.7,1,1c0,0.5,0,1,0,1.5c-1.2-0.3-2.7-0.4-2.6-2C-749.6,224.3-748.7,224.1-748,224.4
		z"/>
	<path class="st72" d="M-728.1-57.1c0-1.4,0-2.8,0-4.3c1.6,0.5,1.1,1.5,1.1,2.3C-726.9-58.2-727.1-57.4-728.1-57.1z"/>
	<path class="st41" d="M-646.2-195c-0.5,1-1.1,2-1.6,2.9c-0.1-1.4-0.8-2.9,0.7-4c0.3,0,0.7,0,1,0
		C-646.1-195.7-646.2-195.3-646.2-195z"/>
	<path class="st43" d="M-876,270.4c-0.4,0.5-0.9,1-1.3,1.5c-0.3,0-0.5,0-0.8-0.1c-0.4-0.3-0.7-0.6-1.1-0.9c1.1-0.6,2.1-1.2,3.2-1.8
		C-876,269.5-876,269.9-876,270.4z"/>
	<path class="st6" d="M-604,153.1c-28.9,0-57.9,0-86.8,0.1c-3,0-3.1-1.4-3-3.6c0.1-14,0-28,0-42.9c5.2,2.6,9.9,5,14.7,7.3
		c1.5,0.8,0.7,1.9,0.6,3c-1.3,9.8,2.4,17.7,10.2,21.9c8,4.3,16.7,2.8,24.1-4.3c1.4-1.3,2.3-1.8,4.2-0.8c12,6.2,24.1,12.3,36.2,18.4
		C-603.9,152.5-604,152.8-604,153.1z"/>
	<path class="st6" d="M-649,102.5c2.2-3.1,4.6-1.5,7.4-0.7c12.8,3.6,21.1,11.5,24.6,24.4c0.7,2.5,2.3,4.8,3.2,7.3
		c0.8,2.3,1.9,3.9,4.9,3c-4.2,2.7-8.1,3.8-12.5,0.8c-2.7-1.9-5.8-3.2-8.9-4.5c-5.8-2.5-10.5-4.8-9.1-13.2c1.1-6.7-3.8-12.1-9.6-15.9
		C-649.4,103.4-649.4,102.9-649,102.5z"/>
	<path class="st0" d="M-645,127.2c-2.6,2.4-3.7,6.7-8.2,6.9c-0.7,1.8-2.6,1.2-3.9,1.8c-1.3,0.1-2.5,0.1-3.8,0
		c-1.7-0.4-3.5-0.5-4.9-1.8c-4.5-1.9-7-5.2-7.3-10.1c-0.8-1.6-1.1-3.3,0-4.9c-0.4-5.9,4.3-8.6,7.8-12c3.8-0.4,7.5-0.9,11.3,0
		c3.4,1.3,5.6,4.1,7.9,6.6c-0.1,1.3,0.9,2.3,1,3.6c1,1.3,1.1,2.9,1.1,4.5C-644.9,123.4-644.3,125.4-645,127.2z"/>
	<path class="st32" d="M-654,107c-3.8,0-7.5,0-11.3,0C-661.5,105.6-657.7,105.1-654,107z"/>
	<path class="st73" d="M-661.1,135.2c1.4,0,2.8,0,4.3,0c0.4,0.3,1,0.3,1,1c-2.1,1.3-4.2,1.3-6.3,0
		C-662.1,135.5-661.5,135.5-661.1,135.2z"/>
	<path class="st74" d="M-662,101.1c-1.6,0.5-3.3,1.1-4.9,1.6c1.2-2.1,2.9-2.7,4.9-2.6c0.3,0.2,0.4,0.4,0.3,0.7
		C-661.7,101-661.9,101.1-662,101.1z"/>
	<path class="st58" d="M-602.2,133.9c1.5-1.1,3.2-1.2,5-1.6c0.1,0.2,0.2,0.4,0.2,0.5c-0.6,2.1-2.7,1.3-4,2.1
		C-601.4,134.5-602.1,134.5-602.2,133.9z"/>
	<path class="st22" d="M-591.1,118c-0.5,1.8-0.7,3.7-2.8,5.4c-0.4-2.5,0.6-4,1.4-5.5C-591.9,117.4-591.4,117.4-591.1,118z"/>
	<path class="st74" d="M-656,100.1c1.5-0.4,2.7,0.5,4,0.9c0.3,0.3,0.4,0.5,0.2,0.8c-0.1,0.2-0.2,0.4-0.3,0.4c-1.4-0.2-2.8-0.1-4-1.1
		c-0.3-0.2-0.4-0.4-0.3-0.7C-656.2,100.3-656.1,100.1-656,100.1z"/>
	<path class="st43" d="M-673,119c0,1.6,0,3.3,0,4.9C-675,122.3-675.6,120.7-673,119z"/>
	<path class="st75" d="M-602.2,133.9c0.4,0.3,0.8,0.7,1.2,1c-1.2,0.1-2.8,1.7-3.4,0.4C-605.1,133.7-603.1,134.2-602.2,133.9z"/>
	<path class="st76" d="M-661.1,135.2c-0.3,0.3-0.7,0.6-1,1c-1.6,0-3-0.4-3.6-2C-664.2,134.5-662.7,134.8-661.1,135.2z"/>
	<path class="st77" d="M-597.1,132.8c0.1-0.3,0-0.4-0.2-0.5c-0.4-1.3,0.1-2.4,0.9-3.4c0.5-0.5,1-0.4,1.3,0.1
		C-595.6,130.3-595.2,132.1-597.1,132.8z"/>
	<path class="st78" d="M-656,100.1c0,0.3,0,0.7,0,1c-2,0-4,0-5.9,0c0-0.3,0-0.7,0-1C-660,100.1-658,100.1-656,100.1z"/>
	<path class="st67" d="M-645,127.2c-1.2-2.1-0.3-3.9,1-5.5C-643.6,123.7-643.7,125.5-645,127.2z"/>
	<path class="st79" d="M-591.1,118c-0.4,0-0.9-0.1-1.3-0.1c0.5-1.3,0.9-2.6,1.4-3.8c0.4,0,0.8,0,1.2,0.1
		C-590.2,115.4-590.6,116.7-591.1,118z"/>
	<path class="st62" d="M-655.9,136.2c-0.3-0.3-0.7-0.6-1-1c1.2-0.4,2.4-0.7,3.7-1.1C-652.9,136.3-654.6,136-655.9,136.2z"/>
	<path class="st22" d="M-595.1,129c-0.4,0-0.9-0.1-1.3-0.1c0.6-1-0.2-3.3,1.8-2.7C-593.2,126.6-595,128-595.1,129z"/>
	<path class="st47" d="M-645,117.2c-1.2-0.9-1.6-2.1-1-3.6C-644.6,114.5-643.7,115.6-645,117.2z"/>
	<path class="st80" d="M-652.1,102.2c0-0.4,0-0.8,0.1-1.1c1,0.5,2,0.9,3,1.4c0,0.4,0,0.9,0,1.3C-650,103.3-651,102.7-652.1,102.2z"
		/>
	<path class="st1" d="M-764.2,281.1c13.4-3.7,26.8-7.4,40.1-11c5.8-1.6,11.6-3,17.3-4.8c3.6-1.1,4.8-0.1,4.4,3.5
		c-0.4,4.3,1.8,10-1,12.4c-2.4,2.1-7.9,0.7-12.1,0.7c-16.2,0-32.3,0-48.5,0C-764,281.7-764.1,281.4-764.2,281.1z"/>
	<path class="st6" d="M-487.1,237.6c2.3,1.2,4.8,2.2,7,3.6c5.7,3.7,11.6,5,18,1.8c1-0.5,1.1,0,1,0.9c-1.8,4.5,0.8,8.7,1,13
		c-1,2.7-3.5,2.8-5.7,3.1c-4.7,0.7-6.4,3.3-5.8,7.9c0.5-1.7,1.7-2.1,3.2-1.8c-4.5,5.2-7.7,11.3-11.5,17c-1.2,0.8-1.6,3.4-3.9,1.9
		c-3.2-0.5-6.3,0.6-9.2,1.5c-3.9,1.2-4.7-0.1-5.2-3.8c-1-8.7-2.6-17.4-4-26.1c-0.9-5.5,1.8-9.6,7.2-11.7
		C-491.5,243.5-487,243-487.1,237.6z"/>
	<path class="st81" d="M-460.8,303.1c-0.4-0.4-0.9-0.9-1.3-1.3c-2.7-2.9-2.5-6.3-1.6-9.8c0.8-2,2.4-3.2,4.1-4.5
		c3.9-1.7,7.6-1.5,11,1.2c5.4,6.6,4.5,11.7-2.7,15.9C-454.6,305.1-458,305.8-460.8,303.1z"/>
	<path class="st54" d="M-467.8,277.7c0.1-3.2,3-3,4.9-3.9c2.5-1.1,5.2-2,7.8-2.9c1.1-0.5,1.2,0.1,1.1,1c-0.1,5.4-3,7.9-8.2,8
		c-2.1,0.1-3,0.9-2.8,3.1c0.1,1.1,0.1,2.6-1.8,1.7C-467.9,282.5-466.4,279.9-467.8,277.7z"/>
	<path class="st34" d="M-451.2,303.9c6-4.9,6.5-8.3,2-14.8c0.1-0.6,0.7-0.7,1.2-0.9c5.6,6,4.9,12.1-2,16.7
		C-450.4,304.6-451.1,304.6-451.2,303.9z"/>
	<path class="st63" d="M-467.8,277.7c3.1,1.9,1.7,4.5,0.9,7c0.2,0.8-0.2,1.2-1,1.3c-1.7,0.9-3.2,1.5-3.3-1.4
		c0.1-0.6,0.2-1.2,0.3-1.8c0.9-1.2,1.7-2.5,2.8-3.5C-468,278.8-467.9,278.3-467.8,277.7z"/>
	<path class="st65" d="M-448,288.2c-0.4,0.3-0.8,0.6-1.2,0.9c-3.4-2.4-7-2-10.8-1c-0.5-0.4-0.6-0.8-0.1-1.3
		C-455.8,284.7-451.7,284.8-448,288.2z"/>
	<path class="st39" d="M-463,292.1c-1.1,3.3-0.1,6.5,0.9,9.7c-3.3-0.6-2.9-3.3-3-5.5c-0.1-1.7,0.3-3.5,0.5-5.2
		C-463.4,290.3-462.7,290.4-463,292.1z"/>
	<path class="st82" d="M-471.1,284.6c0.3,2.5,2.1,1.3,3.3,1.4c-0.9,4.2-4.7-0.2-6.2,2.2C-473.5,286.6-473.8,284.4-471.1,284.6z"/>
	<path class="st83" d="M-451.2,303.9c0.4,0.3,0.8,0.7,1.2,1c-0.7,0.3-1.4,0.6-2.1,0.9c-2-0.6-3.9-0.5-5.9-0.1
		c-1.4-0.4-3.2-0.3-2.8-2.7C-457.6,304.1-454.5,304.9-451.2,303.9z"/>
	<path class="st84" d="M-484,290c-1,2-0.7,4.2-0.8,6.3l0.1-0.1C-487.7,293.6-487.5,292.2-484,290z"/>
	<path class="st78" d="M-483.8,284.9c1.7,0.1,2.5-1.5,3.9-1.9c-0.6,2-1.7,3.8-3.1,5.4C-484.4,287.5-483.5,286.1-483.8,284.9z"/>
	<path class="st27" d="M-463,292.1c-0.3-0.8-0.9-1-1.7-1.1c0.7-2.3,3.1-2.7,4.6-4.2c0,0.4,0.1,0.9,0.1,1.3
		C-461,289.4-462,290.8-463,292.1z"/>
	<path class="st20" d="M-484.7,296.2c0,0-0.1,0.1-0.1,0.1c2,0.4,4.1,0.9,6-0.4C-480.6,300-482.6,299.3-484.7,296.2z"/>
	<path class="st84" d="M-454.1,271.9c-0.4-0.3-0.7-0.7-1.1-1c1.6-1.3,3.2-2.3,5.2-0.9C-450.8,271.6-452.9,270.8-454.1,271.9z"/>
	<path class="st6" d="M-457.9,305.8c2-0.9,3.9-1,5.9,0.1C-454,306.4-456,306.4-457.9,305.8z"/>
	<path class="st27" d="M-477,293c0.6-1.4,0.4-3.6,3-2.9C-475,291.1-475.4,292.7-477,293z"/>
	<path class="st2" d="M-771.4-218.7c4.6-0.1,8.6,3.7,8.9,8.3c0.2,4.6-4,9.2-8.6,9.2c-4.3,0.1-8.7-4-8.9-8.4
		C-780.2-214.3-776.2-218.6-771.4-218.7z"/>
	<path d="M-741.9-223c-19.5,0-38.9,0-58.4,0c0-0.2,0-0.5,0-0.7c19.5,0,38.9,0,58.4,0C-741.9-223.5-741.9-223.2-741.9-223z"/>
	<path class="st28" d="M-782.8-45.2c-0.3,1-0.6,2-1,3c-0.1-2.3-0.2-4.6-0.3-6.8c0.3,0,0.6,0,0.9,0C-783.1-47.7-783-46.4-782.8-45.2z
		"/>
	<path class="st85" d="M-930,93.7c-0.2-0.3-0.2-0.6,0.1-0.9c1.3,2.3,0.8,4.8,0.7,7.2c-0.5,0-1,0-1.5,0
		C-930.9,97.9-931.3,95.7-930,93.7z"/>
	<path class="st7" d="M-930.9,104c1.1-1.1,2.6-2,1.9-4C-927.2,102.5-927.7,103.9-930.9,104z"/>
	<path class="st27" d="M-907.8,93.1c0.3,0.3,0.6,0.7,0.9,1c-0.1,1.3-0.2,2.6-0.3,3.8l-0.5,0l-0.5,0C-908,96.3-907.9,94.7-907.8,93.1
		z"/>
	<path class="st5" d="M-912.1-69.6c4.3-0.1,8,3.3,8.2,7.6c0.2,4.4-3.6,8.5-8,8.5c-4.1,0-8-3.8-8.1-8
		C-920-65.7-916.4-69.5-912.1-69.6z"/>
	<path class="st4" d="M-920.8,146.8c-1.8-2.6-5.6-4.7-5.1-8c0.8-4.8,2.8-9.5,4.9-14c0.8-1.7,3-1.6,3.4,0.8
		C-916.2,133-913.4,140.6-920.8,146.8z"/>
	<path class="st86" d="M-490.7-49.9c-0.3-0.1-0.7-0.1-1-0.2c0.9-2.4,0.7-4.7-0.3-7C-488-55.3-489.9-52.5-490.7-49.9z"/>
	<path class="st67" d="M-482,3.9c-1.2,0-2.1-0.3-2.1-1.7c-0.4-1.7-0.7-3.4,0.2-5.1c0.3-0.2,0.7-0.4,1-0.5
		C-483.2-0.9-482.9,1.6-482,3.9z"/>
	<path class="st66" d="M-732,254c0,0.4,0,0.9,0.1,1.3c-2.9,2.8-5.2,2.3-7-1.2C-736.6,254.7-734.3,255.7-732,254z"/>
	<path class="st84" d="M-744,249c0.3-0.4,0.7-0.7,1-1.1c1.1,1.3,2.3,2.5,2,4.4C-742.5,251.7-743.2,250.3-744,249z"/>
	<path class="st12" d="M-468.4,266.1c-1.2,0.8-2.5,1.5-3.8,2.4c-1.2-7.5-0.9-7.9,6-9.7c2.1-0.5,4.1-1.3,6.1-1.9
		c0.4,0.7,0.8,1.4,1.3,2.1C-462,261.3-465.2,263.7-468.4,266.1z"/>
	<path class="st79" d="M-453.8,254.9c2.3-3.4,4.9-4.2,8-0.9C-448.5,254-451.3,253.8-453.8,254.9z"/>
	<path class="st50" d="M-468.1,279.3c-0.6,1.4-0.9,3.1-2.8,3.5C-470.7,281.1-470.7,279.2-468.1,279.3z"/>
	<path class="st40" d="M-881.1,240.3c0.6-2.4-1.1-4.8,0.3-7.1C-879.5,235.6-877.4,238-881.1,240.3z"/>
	<path class="st87" d="M-888.8,244.1c-0.4-0.3-0.8-0.6-1.1-1c1.6-0.1,3.2-0.2,4.8-0.3c1-0.5,1.2,0,1.1,0.9
		C-885.7,243.9-887.2,244-888.8,244.1z"/>
	<path class="st88" d="M-884.1,243.8c-0.4-0.3-0.7-0.6-1.1-0.9c1.1-0.6,2.2-1.3,3.4-1.9C-881.3,242.9-882.5,243.5-884.1,243.8z"/>
	<path class="st23" d="M-567,260c-6.4,0-12.7,0-19,0c-0.2-1.7,0.5-2,1.4-2c5.1,0,10.2,0,15.3,0C-567.8,257.9-566.4,257.9-567,260
		L-567,260z"/>
	<path class="st54" d="M-511.1-1l-0.5,0l-0.5,0c0-2.7,0.1-5.3,0.1-8c0.3,0,0.6,0,0.9,0C-511.2-6.3-511.2-3.7-511.1-1z"/>
	<path class="st52" d="M-484-2.8c-0.1,1.7-0.1,3.4-0.2,5.1C-485.1,0.5-485.8-1.2-484-2.8z"/>
	<path class="st39" d="M-784.9,120.8c4.5-1.8,9.3-0.5,13.9-0.8c0,5.4-1.4,10.4-4.4,15c-1.6,2.5-3.8,4.7-3.6,8c-2.5-1.2-5-2.6-8-1.9
		c-0.3-0.4-0.4-0.8-0.3-1.3c5.2-7.4,5.2-7.9,1.1-14.3c-0.2-0.6-0.1-1.3,0.2-1.9C-785.6,122.7-785,121.9-784.9,120.8z"/>
	<path class="st31" d="M-797.2,141c-1.6,0-3.1,0-4.7,0c-4.1-6.5-8.4-12.8-8.1-21c4.4,0.6,9-1.4,13.2,1.2c0.8,1,1.8,1.9,2.1,3.2
		c-0.1,0.7-0.2,1.3-0.7,1.8c-4.4,5.1-1.8,9.3,1.6,13.5c0.1,0.5,0,0.9-0.3,1.3C-795.1,141.2-796.1,140.1-797.2,141z"/>
	<path class="st89" d="M-794,141.1c0-0.3,0-0.7,0-1c2.3-1.1,4.7-1.2,7,0c0,0.3,0,0.7,0,1C-789.3,142.7-791.7,142.7-794,141.1z"/>
	<path class="st87" d="M-778.1,149.9c-0.3-0.4-0.7-0.7-1-1.1c0.3-1.4-0.6-3.1,1.2-4.1C-778,146.5-778.1,148.2-778.1,149.9z"/>
	<g>
		<path d="M200.7,266.4c-1.2-32.9-4.1-65.6-9.1-98.1c-1.6-7.8-5.8-14.7-7.4-22.4c-5.3-24.5,5.5-37.5,30.5-38.9
			c15.1-0.8,29.6,7.8,44.8,1.8c9.6-1.7,19.2-1.9,28.9-1.5c14.8,0.6,24.6,6.9,26,22.8c-1.5,7.7-0.8,16.1-6.6,22.6
			c-4.1,38.3-8.3,76.6-12.4,114.8C263.7,275.9,232.1,277.6,200.7,266.4z"/>
		<path d="M294.7,272.8c-0.9,14.8,4.2,26.7,16.1,35.9c28.2,21.7,40.5,49.9,37.4,85.8c-1.4,16.9,1.7,34.2,2.8,51.3
			c0.7,10.7-3,18.9-14.3,19.7c-12.5,0.8-17-7.6-17.6-19c-1.3-24.4-2.8-48.7-4.1-73.1c-0.4-6.5,0.2-12.7-6.6-17.3
			c-18-12.1-35.9-24.6-53.2-37.6c-5.7-4.3-9.1-2.3-13.6,1c-16.6,11.9-33.1,24-50.1,35.2c-6.5,4.3-7.7,9.7-8,16.6
			c-1.2,24.4-2.8,48.7-4.4,73.1c-0.7,11.3-3.5,22.2-17.7,21.1c-14.3-1.1-14.8-12.3-14.1-23.6c1.8-28.3,3.8-56.6,4.8-84.9
			c0.3-9.5,4.6-15.8,10.6-22.4c12.8-14,27.7-26.2,37.7-42.6c3.4-22.4,3.4-23.2,27.1-22.2C249.9,270.6,272.6,265.6,294.7,272.8z"/>
		<path d="M287,80.1c-5.6,13-14.7,22.7-27.3,29.1c-21.7,3.6-36.2-6.9-47.2-24.2c-1.8-37,20.5-58.6,49.6-47.5
			C281.5,44.8,287.6,60.6,287,80.1z"/>
		<path d="M67.6,81.9c15.2,20.6,30.9,40.9,45.2,62.1c7.6,11.3,16.3,11.6,27.1,7c15-6.4,27.5-16.9,44.2-28.5c0,14.9,0,26.3,0,37.8
			c-15.2,6.1-29.4,14.5-45.8,17.8c-16.7,3.3-29.6-1-39.7-15c-14.7-20.3-29.9-40.2-44.9-60.3C50,98,41.5,94.5,46.5,86.7
			C51.5,78.9,59.4,78.4,67.6,81.9z"/>
		<path d="M314.6,136.3c0.9-4.7-0.6-10.6,8.4-5.1c46.7,28.6,47,28.4,79.5-15.3c7.4-9.9,14.1-20.3,21.1-30.4
			c6.5-5.5,13.7-9.4,20.5-1.6c6,7,0.9,13.3-3.6,19.2c-13.8,18.3-27.7,36.5-41.3,54.9c-16,21.6-26.5,25.8-52,17.8
			c-12.8-4-26.5-7.2-35.4-18.9C313.7,150.2,308.7,142.5,314.6,136.3z"/>
		<path d="M500,90.1c-19.1,1.7-18.5,13.3-17.8,25.3c0.4,7.1,1.8,14-10.1,13.9c-12-0.1-9.4-7.3-10.1-14.2c-0.9-8.1,5-18.8-8.1-22.9
			c-0.9-0.3-1.2-4.9-1.2-4.9c16.1-3.8,8.2-16.7,9.1-25.6c0.7-8.1,2.4-11.6,11.3-11.5c8.9,0.1,9.6,4.8,9.2,11.3
			C481.5,74.1,480,87,500,90.1z"/>
		<path d="M21.1,129c-3.2-0.1-7.3,0.6-8.1-3.4c-2.6-12.1,5.9-28.1-12.2-34.8c0,0,0.6-3.2,1.3-3.4c15.5-3.4,9.9-15.7,10.3-25
			C12.7,54.8,13.6,50,23,50.2c9.8,0.1,10.4,5.6,10,12.8c-0.6,10-1,20,8.2,27c-13.3,7.4-7.4,20.2-8,30.8
			C32.8,130.1,26.9,128.9,21.1,129z"/>
		<path d="M417,85.6c-3.2,9.9-10.6,9.3-18.5,7.5c-35.7-3.7-71.4-3.5-107.1-0.1c-6.1,0.3-2.5-4.3-3.4-6.7C331,86.1,374,85.9,417,85.6
			z"/>
		<path d="M207.8,85.2c0.6,1.2,0.9,2.4,0.7,3.7c-42.8,3.7-85.5,2.8-128.3,0.5c-2.4-0.5-3-1.9-2.3-4.1
			C121.2,85.2,164.5,85.2,207.8,85.2z"/>
		<path d="M314.6,136.3c0.9,7.1,0.6,14.1-3,20.5c-1.3-1.4-2.5-2.8-3.8-4.2c-1-7.2-0.8-14.2,2.8-20.8
			C312,133.4,313.3,134.9,314.6,136.3z"/>
		<path d="M80.2,89.4c42.8-0.2,85.5-0.3,128.3-0.5c4.6,5.1-0.8,5.1-3.2,5.1c-39.8,0.1-79.7,0.1-119.5-0.2
			C83.9,93.8,82,90.9,80.2,89.4z"/>
		<path d="M291.4,93.1c25.3-9,51.4-2.4,77.1-3.7c9.9-0.5,20.9-4.2,30,3.8C362.8,94.8,327.1,95,291.4,93.1z"/>
	</g>
	<path class="st61" d="M-459.6-58c-1.8,1.3-3.5,2.5-5.8,1C-463.5-57.8-461.9-59.9-459.6-58z"/>
	<path class="st90" d="M-468.2-55.9c-0.2,2.3-1.1,3.2-3.4,1.9C-470.8-55.4-469.5-55.7-468.2-55.9z"/>
	<path class="st91" d="M-449,237c0.1-1.3,0.1-2.7,0.2-4c0.3-0.5,0.7-0.5,1,0C-446.8,234.7-446.9,236.2-449,237z"/>
	<path class="st92" d="M-455.9,229.1c-0.3-0.3-0.7-0.6-1-0.9c1.7-0.1,3.3-0.2,5-0.3c0.5,0.4,1,0.7,1.5,1.1
		C-452.3,230-454.1,228.5-455.9,229.1z"/>
	<path class="st57" d="M-461.1,243.8c-0.3-0.3-0.6-0.6-1-0.9c1.1-1.3,2.8-1.1,4.1-1.7c0.5,0.2,1.2,0.3,1.3,1
		C-458.1,242.7-459.6,243.3-461.1,243.8z"/>
	<path class="st57" d="M-453.4,240c1.1-0.7,2.2-1.3,3.3-2C-449.6,241.3-451.1,241.4-453.4,240z"/>
	<path class="st93" d="M-456.6,242.2c-0.4-0.3-0.9-0.7-1.3-1c1.4-0.4,2.7-0.9,4.1-1.3C-453.5,242.2-455.3,242-456.6,242.2z"/>
	<path class="st39" d="M-447.8,233c-0.3,0-0.7,0-1,0c-0.3-1.3-1.9-2.3-1-3.9C-448.8,230.2-447.7,231.3-447.8,233z"/>
	<path class="st78" d="M-742,210.1c2.8,0.3,4.6,1.8,4.6,4.4c0.1,2.6-1.5,4.5-4.3,4.5c-2.7,0.1-4.4-1.5-4.5-4.2
		C-746.2,211.9-744.5,210.6-742,210.1z"/>
	<path class="st94" d="M-732.1,208c0.7,1.1,1.3,2.2,2,3.3c0.2,3.2,0.6,6.5-1.9,9.2c0.1-1.1,0.1-2.2,0.2-3.4c0.6-1.8,0.7-3.6,0-5.4
		c-0.5-1.3-0.9-2.5-1.4-3.8C-732.9,207.6-732.5,207.7-732.1,208z"/>
	<path class="st24" d="M-739,203c0,0.4,0,0.9-0.1,1.3c-2.4-0.4-4.7,0-6.9,0.5c-0.4-0.2-0.5-0.4-0.3-0.6c0.1-0.2,0.2-0.3,0.4-0.3
		C-743.9,202-741.4,203.1-739,203z"/>
	<path class="st6" d="M-746,204c-0.1,0.3-0.1,0.6,0,0.8c-1.3,0.9-2.7,1.8-4,2.7c-0.6-1.3,0.9-1.9,1-2.9
		C-748,204.4-747,204.2-746,204z"/>
	<path class="st32" d="M-739.8,226c-1.6,0.4-3.4,1.4-4.3-1.1C-742.6,225.4-740.8,224.1-739.8,226z"/>
	<path class="st70" d="M-731.9,211.9c1.2,1.8,1.2,3.6,0,5.4C-731.9,215.4-731.9,213.6-731.9,211.9z"/>
	<path class="st91" d="M-732.1,208c-0.4,0-0.8,0-1.2,0c-0.6-0.6-1.2-1.2-1.8-1.9c0.1-0.3,0.1-0.6,0-0.9
		C-733.4,205.5-732.7,206.7-732.1,208z"/>
	<path class="st95" d="M-795,124c-1.8-0.2-2-1.3-1.7-2.8c3.9-0.1,7.9-0.3,11.8-0.4c1,1,1.2,2.1,0,3.1c-1-0.7-2.2,0.2-3.2-0.3
		c-1.5-0.4-3-0.6-4.4,0.1C-793.3,124.1-794.1,124.6-795,124z"/>
	<path class="st4" d="M-653.8,121.3c-0.3,3.5-2.3,5.3-5.5,5.1c-3-0.1-4.9-2-4.9-5.1c0-3.4,1.9-5.3,5.2-5.3
		C-655.6,116-654,118.1-653.8,121.3z"/>
	<path class="st96" d="M-454.7,291.1c0.1,2.8,2.5,2.4,3.6,3.5c-2.4,0.2,0.3,3.4-2.6,3.9c-3.6,0.7-4-2.2-4.6-3.8
		C-458.7,293.7-455.1,293.8-454.7,291.1z"/>
	<path class="st5" d="M-795,124c0.5-0.3,1.1-0.6,1.6-1c1.4,0,2.9-0.1,4.3,0.1c1.2,0.3,2.4,0.6,3.2,1.6c5.9,5.7,5.6,10-1.1,15.4
		c-2.3,0.8-4.7,0.8-7,0C-800.6,134.8-800.8,131.4-795,124z"/>
	<path class="st91" d="M-785.9,124.7c-1-0.3-2-0.6-3-0.9c-0.1-1,0.3-1.3,1.3-1.1c0.9,0.4,1.8,0.8,2.8,1.2
		C-785.2,124.2-785.6,124.5-785.9,124.7z"/>
	<path d="M274.2-329.5c0.7-0.3,1.1-0.4,1.3-0.6c0.9-1,0.4-3.2,2.7-3c0.9,0.1,1.1,0.8,1,1.4c-0.3,1.8-0.1,4.3-2.1,4.7
		c-4.1,0.7-3.5,3.5-3.5,6.3c0.1,4.6,0,9.2,0,14.1c6.9-4.4,11-4.4,14.5-0.2c2.8,3.3,2.7,8.1-0.3,11.4c-3.6,3.9-7.7,3.8-13.6-0.4
		c-0.2,0.2-0.4,0.5-0.4,0.7c-0.4,10.6-0.4,10.6,10.1,10.6c25.7,0,51.3,0,77,0c6.3,0,7,0.7,7,6.8c0,4.8,0,9.7,0,14.5
		c0,2.8-0.7,5.1-4,5.2c-3.4,0-4-2.4-3.9-5.1c0-0.2,0-0.3,0-0.5c-0.1-4.1,1.4-9.7-0.7-12c-2.5-2.8-8.2-0.9-12.4-0.9
		c-22.7-0.1-45.3,0.1-68-0.1c-4.2,0-5.5,1.3-5.1,5.3c0.3,2.8,0.1,5.7,0.1,8.5c0,2.8-0.9,5.1-4.2,5c-3.1-0.1-3.7-2.3-3.7-4.9
		c0-24,0-48,0-72c0-2.7,1-4.8,3.8-4.8c2.8-0.1,4,2,4.1,4.7C273.7-333.3,273.2-331.4,274.2-329.5z"/>
	<path class="st0" d="M341.4-301c11.5,1.2,23.1,2.3,34.6,3.6c3.3,0.4,5.3,2.2,5.9,5.7c1.4,8.2,2.8,16.4,4.5,24.5
		c0.7,3.4-0.2,5.8-3.5,6.6c-3.4,0.8-5.2-1.4-5.9-4.6c-1.4-6.2-2.9-12.3-3.9-18.5c-0.5-3.3-1.9-4.5-5.1-4.5c-5.3,0-10.7,0-16,0.5
		c-3.3,0.3-6.6,0.9-9.9,0c-2.3,0.1-2.8-1.9-3.9-3.3c-0.5-0.8-0.8-1.6-0.8-2.6c0.3-2.1,0.7-4.1,1.6-6.1
		C339.7-300.3,340.3-301,341.4-301z"/>
	<path d="M338-292.8c0.3,0.5,0.7,1,1,1.5c1.3,4.7,1.3,4.8-3.4,4.8c-12.8-0.2-25.7,0.5-38.5-0.4c-1-1-3.1-1-3-3.1
		c1.2-1.5,3.4-0.9,4.8-1.9c1.3-1.1,2.4-2.5,3.7-3.5c1.4-1,2.2-2.5,2.8-4c0.7-1.6,1-3.4,2.5-4.6c0.3-1.4,1.2-1.7,2.6-1.7
		c10.2,0.3,20.4,1.7,30.4,3.8c0.3,0.1,0.5,0.7,0.7,1.1c-0.5,0.5-0.9,1.1-1.4,1.6C338.3-297.5,337.7-295.3,338-292.8z"/>
	<path class="st97" d="M303-295.1c-1.1,1.4-2.1,2.9-3.2,4.3c-1.9-0.3-3.9,0.7-5.8-0.2c-1.9-3.4-1.6-6,1.5-8.9
		c4.3-4.1,4.7-10.1,5.2-15.7c0-0.5-1.1-1.1-1.7-1.6c-0.3-0.2-0.4-0.5-0.3-0.7c0-0.3,0.1-0.4,0.2-0.4c0.6-0.7,1.4-1.1,2.3-1.2
		c0.5,0,0.9,0.1,1.3,0.3c1.2,0.8,2.4,1.1,3.7,0.3c0.6-0.3,1.1-0.6,1.8-0.7c1.4,0.1,3-0.7,4.3,0.5c-5.5,3.2-4.6,8.9-5.3,13.9
		c-0.1,2.1-0.5,4.1-1.4,6C305-297.6,304.4-296.1,303-295.1z"/>
	<path class="st87" d="M297-287c14.2,0,28.3,0,42.4,0c1.1-1.7-2.1-2.8-0.4-4.4c1.1,1.3,2.1,2.6,3.2,3.9c-0.8,1.4-2.1,1.4-3.5,1.4
		c-13,0-26,0-39,0C298.7-286.1,297.7-286.2,297-287z"/>
	<path class="st98" d="M317.1-333.6c1.9,6.3,0.9,9.9-3.1,11.7c-0.2-0.2-0.3-0.4-0.5-0.6c-0.3-0.8-0.2-1.6,0.1-2.3
		c1-1.6,0.9-3.4,1.1-5.1C314.9-331.5,314.9-333.3,317.1-333.6z"/>
	<path class="st97" d="M300-342c3.1-0.8,6.2-1.9,9,0.7c0.2,0.2,0.3,0.5,0.3,0.7c0,0.3-0.1,0.4-0.1,0.4c-1,0.7-2.1,0.3-3.1,0.3
		c-1.1,0-2.1,0.3-3.2,0.2c-1.1-0.2-2.1-0.5-3-1.2C299.6-341.2,299.7-341.6,300-342z"/>
	<path class="st17" d="M317.1-333.6c-1.8,1.4-0.5,3.3-0.7,4.9c-0.2,1.8-0.2,3.5-2.2,4.4c-0.9-3.6-1.3-7.1,0.1-10.6
		c0.4-0.4,0.9-0.5,1.3-0.1C316.9-335.4,317-334.5,317.1-333.6z"/>
	<path class="st3" d="M296-321.4c-3,0.7-3.6-1.5-4.1-3.7c-0.6-1-0.6-1.7,0.5-2.3c1.1,0.1,1.6,1,2.2,1.7c0.8,1.1,1.9,2.1,1.7,3.7
		C296.3-321.8,296.2-321.6,296-321.4z"/>
	<path class="st46" d="M292.8-327c-0.3,0.7-0.5,1.3-0.8,2c-1.5-2.7-1.6-5.5-0.1-8.2c1.1,0.5,1.6,1.5,1.9,2.6
		C294.1-329.3,294.2-328,292.8-327z"/>
	<path class="st99" d="M309-340.3c0-0.3,0-0.6,0.1-0.9c4.1,0.1,5.9,2.5,6.5,6.2c-0.3-0.1-0.5-0.2-0.8-0.1c-0.7,0.2-1.2-0.2-1.7-0.6
		c-0.9-1.1-2.1-2-3.3-2.8C309.3-339.1,309-339.6,309-340.3z"/>
	<path class="st100" d="M300-342c0,0.3,0,0.6,0,0.9c0.4,1.4-0.8,1.8-1.5,2.6c-1,0.8-1.9,1.8-3,2.6c-0.4,0.2-0.8,0.3-1.3,0.4
		c-0.5,0-0.8-0.2-1.1-0.6C294.5-339.1,296.9-341,300-342z"/>
	<path class="st60" d="M312.2-319.1c-1.6-0.5-3.1,2-4.6,0.1c0.4-2.5,2.3-2.8,4.4-2.8c0.5,0.1,0.9,0.3,1.3,0.7
		c0.2,0.5,0.1,0.9-0.2,1.3C313.1-319.2,312.8-319,312.2-319.1z"/>
	<path class="st93" d="M305.5-299c-0.4-2.3,0.4-4.2,1.5-6.2c0.3,0.3,0.6,0.7,0.9,1C307.3-302.4,307.8-300.1,305.5-299L305.5-299z"/>
	<path class="st101" d="M299-318.5c0,0.5,0,0.9,0,1.4c-2.6-0.2-3.1-2-3-4.2c-0.3-0.3-0.3-0.6-0.1-0.9c0.7-0.1,1.4,0.2,2,0.6
		C298.9-320.8,299.4-319.8,299-318.5z"/>
	<path class="st83" d="M294-290.9c2-0.5,3.9-0.9,5.8,0.2c-1.8,1.3-3.8,0.6-5.8,0.7C294-290.4,294-290.7,294-290.9z"/>
	<path class="st81" d="M293.2-336.1c0.4,0,0.7,0,1.1,0.1c0.7,1.2,0.3,2.3-0.1,3.4c-0.3,0.7-0.7,1.3-1.4,1.5
		c-0.3-0.7-0.6-1.4-0.8-2.1C291.8-334.4,292.3-335.3,293.2-336.1z"/>
	<path class="st72" d="M314-321.9c0.1,0.3,0.1,0.6-0.1,0.9c-0.4,0.3-0.7,0.2-1-0.1l0.1,0.1c-0.4-1,0.2-1.3,1-1.4
		C314.1-322.3,314.1-322.1,314-321.9z"/>
	<path d="M313-321.1c0.3,0,0.6,0.1,1,0.1c0.1,0.7-0.4,0.9-0.9,1.2C313-320.3,313-320.7,313-321.1z"/>
	<path class="st78" d="M338-292.8c-1.7-2.9-0.9-5,2-6.5C339.4-297.2,338.7-295,338-292.8z"/>
	<path class="st102" d="M305.5-299C305.5-299,305.5-299.1,305.5-299c0.1,1.8-0.1,3.6-2.5,3.9C303.4-296.7,304-298.1,305.5-299z"/>
	<path class="st5" d="M314-322.5c-0.9,0.1-1.3,0.5-1,1.4c-2.2-0.5-3.9,0.8-5.5,2c-0.2,0.3-0.4,0.6-0.5,0.9c-1.8,0.3-3.6,0.3-5.1-1
		c-0.2,0-0.3,0-0.5,0c-1.8,0.2-2.7-1.2-3.9-2.1c-0.5-0.4-1-0.7-1.5-1.1c-0.7-0.8-1.3-1.6-2-2.4c-0.6-2.3-0.5-4.6-0.5-7
		c0.4-1.6,1.3-3,2.1-4.4c0.9-1.1,1.9-2.1,3.1-2.8c1.4-0.9,2.9-1.4,4.6-1.3c0.9-0.6,1.9-1.1,3-0.9c1,1.2,2.7,1.5,3.9,2.4
		c1.5,0.5,2.5,1.8,3.8,2.6c0.2,0.3,0.5,0.6,0.7,0.8c-0.8,3.6,0.9,7.3-0.6,10.9C314.1-323.7,314-323.1,314-322.5z"/>
	<path class="st66" d="M301.9-319.1c1.8,0.1,3.6-0.2,5.1,1C305-316.9,303-315.9,301.9-319.1z"/>
	<path class="st103" d="M297.5-321.2c1.3,0.7,2.6,1.4,3.9,2.1c-0.6,0.9-1.4,0.9-2.3,0.6C297.9-319.1,297.9-320.2,297.5-321.2z"/>
	<path class="st80" d="M303.3-340.1c-1.4,0.6-2.9,1.1-4.3,1.7c-0.5-0.1-0.8-0.3-1-0.7c0-1.4,2-0.6,2.1-1.9
		C301.2-340.9,302.5-341.6,303.3-340.1z"/>
	<path class="st69" d="M310-338.4c-1.2-1-3.8,0.2-3.7-2.5c0.9,0.2,1.8,0.4,2.7,0.7c0.6,0.2,1.1,0.5,1,1.3
		C310-338.8,310-338.6,310-338.4z"/>
	<path class="st75" d="M294.2-331.7c-0.7,2.3,1,4.8-0.2,7.1c-1.1-0.4-1-1.5-1.2-2.4c0-1.4,0-2.7,0-4.1c0.2-0.6,0.3-1.2,0.5-1.9
		C294.2-333.1,294.6-332.7,294.2-331.7z"/>
	<path class="st62" d="M310-338.4c0-0.2,0-0.4,0-0.6c2.1-0.1,3.3,1.2,4,3C311.9-335.5,311.3-337.6,310-338.4z"/>
	<path class="st85" d="M294.2-331.7c-0.3-0.4-0.7-0.9-1-1.3c0.3-1,0.7-2,1-3c0.4,0,0.7,0,1.1,0c0.3-0.4,0.6-0.4,0.8,0
		C295.5-334.6,294.9-333.2,294.2-331.7z"/>
	<path class="st20" d="M296.1-336c0,0-0.4-0.1-0.4-0.1s-0.4,0.1-0.4,0.1c0.2-1.6,1.5-2.3,2.7-3.1c0.3,0.2,0.7,0.5,1,0.7
		C298-337.6,297.1-336.8,296.1-336z"/>
	<path class="st78" d="M304.2-324.9c-2.6-0.3-4.2-1.9-4.1-4.6c0.1-2.7,2-4.3,4.6-4.2c2.6,0.1,4.4,1.8,4.2,4.6
		C308.8-326.4,307.1-325,304.2-324.9z"/>
	<path class="st104" d="M-787.7,122.7c-0.4,0.4-0.8,0.7-1.3,1.1c-1.5-0.1-3.2,0.8-4.5-0.8C-791.6,121.3-789.6,121.7-787.7,122.7z"/>
</g>
</svg>
